<?xml version="1.0" encoding="UTF-8"?>
<svg width="60px" height="46px" viewBox="0 0 60 46" version="1.1" xmlns="http://www.w3.org/2000/svg" xmlns:xlink="http://www.w3.org/1999/xlink">
    <!-- Generator: Sketch 52.3 (67297) - http://www.bohemiancoding.com/sketch -->
    <title>路径</title>
    <desc>Created with Sketch.</desc>
    <g id="页面-1" stroke="none" stroke-width="1" fill="none" fill-rule="evenodd">
        <g id="吴淞站" transform="translate(-3231.000000, -1011.000000)" fill-rule="nonzero">
            <g id="资源-18" transform="translate(3097.000000, 991.000000)">
                <g id="路径" transform="translate(134.000000, 20.000000)">
                    <polygon fill="#973400" points="59.7080009 14.9800002 59.5360009 20.6120003 44.8520007 30.9320005 44.9400007 25.2960004"></polygon>
                    <polygon fill="#6A2807" points="14.7680002 25.2960004 14.8560002 30.9320005 0.172000003 20.6120003 1.86517468e-14 14.9800002"></polygon>
                    <polygon fill="#FF5700" points="39.0600006 12.8800002 59.7080009 14.9800002 44.9400007 25.2960004 48.7880007 40.2480006 29.8560004 33.1320005 10.9160002 40.2480006 14.7680002 25.2960004 -1.24344979e-13 14.9800002 20.6480003 12.8800002 29.8560004 2.84217094e-14"></polygon>
                    <polygon fill="#6A2807" points="48.7880007 40.2480006 48.6760007 45.8800007 29.8560004 38.7640006 29.8560004 33.1320005"></polygon>
                    <polygon fill="#973400" points="29.8560004 33.1320005 29.8560004 38.7640006 11.0280002 45.8800007 10.9160002 40.2480006"></polygon>
                </g>
            </g>
        </g>
    </g>
</svg>