<?xml version="1.0" encoding="UTF-8"?>
<svg width="19px" height="19px" viewBox="0 0 19 19" version="1.1" xmlns="http://www.w3.org/2000/svg" xmlns:xlink="http://www.w3.org/1999/xlink">
    <!-- Generator: Sketch 57.1 (83088) - https://sketch.com -->
    <title>浮筒</title>
    <desc>Created with Sketch.</desc>
    <defs>
        <linearGradient x1="50%" y1="23.7266377%" x2="50%" y2="100%" id="linearGradient-1">
            <stop stop-color="#F5515F" offset="0%"></stop>
            <stop stop-color="#9F041B" offset="100%"></stop>
        </linearGradient>
        <linearGradient x1="50%" y1="23.7266377%" x2="50%" y2="97.9526497%" id="linearGradient-2">
            <stop stop-color="#7E111B" offset="0%"></stop>
            <stop stop-color="#9F041B" offset="100%"></stop>
        </linearGradient>
    </defs>
    <g id="页面-1" stroke="none" stroke-width="1" fill="none" fill-rule="evenodd">
        <g id="吴淞站" transform="translate(-3705.000000, -1430.000000)" fill-rule="nonzero">
            <g id="浮筒" transform="translate(3705.000000, 1430.000000)">
                <g id="编组" transform="translate(0.000000, 1.000000)" fill="url(#linearGradient-1)">
                    <path d="M9.44,3.445 L8.53118104,6.40012412 L9.44418104,3.45012412 L9.37218104,4.42212412 L9.44918104,3.45012412 L11,10.825 C10.2919825,10.8900117 9.58055446,10.910052 8.87,10.885 L8.86918104,10.8831241 L8.31663102,10.8551444 C7.94149882,10.8285151 7.56738118,10.7884456 7.195,10.735 C6.695,10.66 6.195,10.565 5.73,10.445 C5.28776325,10.336534 4.85205862,10.2029847 4.425,10.045 L4.42718104,10.0401241 L4.03530427,9.89374803 C3.76752889,9.78773372 3.5038961,9.67140152 3.245,9.545 L9.28118104,3.59912412 L3.23,9.525 L2.815,9.3 C2.58,9.16 2.355,9.02 2.15,8.87 C1.8372258,8.65128719 1.54441736,8.4053281 1.275,8.135 C1.01311573,7.86995401 0.781678807,7.57646516 0.585,7.26 C0.382348208,6.93319825 0.230611059,6.57745893 0.135,6.205 C0.0285373484,5.77640202 0.0115168947,5.33046614 0.085,4.895 L9.44,3.44 L0.225181044,6.17712412 L9.42018104,3.45012412 L9.42118104,3.44912412 L9.44,3.445 Z M9.465,3.44 L18.42,3.825 C18.5739765,4.10912184 18.6915679,4.41149975 18.77,4.725 C18.8451074,5.05267087 18.8703914,5.38979171 18.845,5.725 L18.843181,5.72412412 L18.8170172,5.95000878 C18.7695283,6.25501561 18.6814976,6.55267156 18.555,6.835 C18.3278478,7.32390817 18.0164323,7.76902925 17.635,8.15 C17.1866884,8.59641952 16.6825035,8.98296123 16.135,9.3 C14.5564176,10.1545481 12.8150125,10.6657238 11.025,10.8 L9.455,3.45 L16.881181,7.71612412 L9.465,3.445 L14.154181,4.58112412 L9.465,3.44 Z M10.94,0.08 L9.44118104,3.43412412 L9.445,3.44 L9.44,3.44 L9.41418104,3.43812412 L0.085,4.895 C0.20359703,4.25340887 0.484133204,3.65275167 0.9,3.15 C1.42444707,2.51981826 2.05994417,1.99108468 2.775,1.59 C4.31885457,0.746859388 6.02197979,0.235921822 7.775,0.09 L8.85818104,2.26412412 L7.78,0.08 C8.8308397,-0.0225011736 9.8891603,-0.0225011736 10.94,0.08 Z M9.465,3.435 L9.50318104,3.43212412 L9.51518104,3.42612412 L9.465,3.435 Z M9.40618104,3.46812412 L9.02418104,3.75312412 L9.40518104,3.47012412 L9.40618104,3.46812412 Z M17.85,3 L9.56818104,3.41812412 L9.53718104,3.42312412 L9.50718104,3.43212412 L17.85,3 Z M14.7,0.93 L9.48018104,3.42112412 L9.52918104,3.41412412 L9.56018104,3.40512412 L14.7,0.93 Z M9.55418104,3.40712412 L9.53518104,3.41312412 L9.54618104,3.41112412 L9.54818104,3.41112412 L9.55418104,3.40712412 Z M10.354181,3.18512412 L10.307181,3.19912412 L11.022181,2.99912412 L10.354181,3.18512412 Z M9.44,3.445 L9.39018104,3.50912412 L6.56218104,8.86912412 L9.44,3.445 Z M9.465,3.435 L9.51218104,3.42112412 L9.50418104,3.42112412 L9.47618104,3.42912412 L9.50218104,3.42112412 L9.47718104,3.42312412 L9.465,3.43 L9.47118104,3.42312412 L9.47218104,3.42312412 L9.47618104,3.41912412 L10.955,0.07 C11.6759976,0.13628657 12.3912183,0.254932989 13.095,0.425 L13.086181,0.43112412 L13.491441,0.533457061 C13.900925,0.644153727 14.3043478,0.776510585 14.7,0.93 C15.0351059,1.05996301 15.3632091,1.20709937 15.683012,1.37080022 L16,1.54 L16.09,1.59 L16.079181,1.59212412 L16.4188313,1.79924841 C16.6446759,1.94408096 16.863645,2.09949764 17.075,2.265 L17.066181,2.26512412 L17.2743309,2.43443829 C17.4794716,2.60880642 17.6718716,2.79780478 17.85,3 C18.0686807,3.25043691 18.2597805,3.52367615 18.42,3.815 L9.465,3.435 Z" id="形状结合"></path>
                </g>
                <path d="M5.5,5.53 C3.32,4.26 3.305,2.23 5.5,0.95 C7.98308014,-0.315399282 10.9219199,-0.315399282 13.405,0.95 C15.605,2.23 15.615,4.26 13.435,5.53 C10.9439979,6.80643957 7.99100208,6.80643957 5.5,5.53 L5.5,5.53 Z" id="路径" fill="#FF6370"></path>
                <g id="编组" transform="translate(0.000000, 6.000000)" fill="url(#linearGradient-2)">
                    <path d="M0.04,0.42 C0.04,1.825 0.96,3.23 2.815,4.3 C3.25160294,4.54928653 3.70580551,4.76639773 4.17399312,4.94960606 L4.175,4.95 C4.54816325,5.09775174 4.92866373,5.22625409 5.315,5.335 L5.314,5.339 L5.6187037,5.42166667 C5.72796296,5.44944444 5.8387037,5.47611111 5.9512963,5.50166667 L6.295,5.575 L6.760625,5.665 L7.23,5.74 C7.53,5.78 7.835,5.815 8.145,5.84 L8.145,5.84 C8.45,5.865 8.76,5.88 9.07,5.89 L9.03,12.86 C8.72,12.86 8.41,12.86 8.105,12.81 L8.105,12.785 L8.105,12.81 C7.8,12.81 7.495,12.75 7.19,12.71 C6.875,12.665 6.565,12.61 6.255,12.545 C5.925,12.475 5.595,12.395 5.255,12.305 L5.255,12.299 L4.8906646,12.1896874 C4.63581199,12.108447 4.3837755,12.0185012 4.135,11.92 C3.6664567,11.736709 3.21191592,11.5194652 2.775,11.27 C0.92,10.2 9.1038288e-14,8.795 9.1038288e-14,7.39 L0.04,0.42 Z M16.235,4.23 C16.6610999,3.97871189 17.0599116,3.68379231 17.425,3.35 L17.424,3.365 L17.6212142,3.16681338 C17.7550391,3.02454294 17.8814745,2.87541092 18,2.72 C18.140792,2.54331902 18.267831,2.35610373 18.38,2.16 L18.359,7.39 L18.39,2.16 C18.4864014,1.98807001 18.5699624,1.80924949 18.64,1.625 C18.7043445,1.45306939 18.7544476,1.27614121 18.7898034,1.09600266 L18.79,1.095 C18.8238934,0.916683247 18.8456103,0.736266279 18.855,0.555 L18.815,7.525 C18.8081613,7.70647658 18.7864215,7.88708431 18.75,8.065 C18.7146334,8.24548469 18.6644639,8.42275041 18.6,8.595 L18.6,8.595 C18.5302292,8.77854759 18.4470378,8.95670749 18.3511012,9.12803479 L18.35,9.13 C18.2366984,9.32698581 18.1097201,9.51578238 17.97,9.695 L17.985,5.89 L17.96,9.72 C17.7798278,9.94173297 17.5843497,10.1505771 17.375,10.345 L17.375,10.328 L17.1049611,10.5629812 C16.8188002,10.7985251 16.5145749,11.0115339 16.195,11.2 L16.195,11.2 L16.08,11.27 C15.4212763,11.6456828 14.7238977,11.9491095 14,12.175 C13.4238033,12.3610886 12.8358457,12.5085441 12.2400412,12.6163879 L12.24,12.62 C11.8466667,12.69 11.4466667,12.745 11.04,12.785 L11.04,12.785 C10.695,12.82 10.345,12.845 9.995,12.855 L9.994,12.854 L9.035,12.855 L9.075,5.885 L10.035,5.885 C10.385,5.885 10.73,5.85 11.08,5.815 C11.4765603,5.7756717 11.8698983,5.72184296 12.260014,5.65351376 L12.26,5.65 C12.8626614,5.54184538 13.4573437,5.3931748 14.04,5.205 C14.7570181,4.97777241 15.4476263,4.67437415 16.1,4.3 L16.215,4.23 L16.198,10.326 L16.235,4.23 Z" id="形状结合"></path>
                </g>
            </g>
        </g>
    </g>
</svg>