<?xml version="1.0" encoding="UTF-8"?>
<svg width="59px" height="116px" viewBox="0 0 59 116" version="1.1" xmlns="http://www.w3.org/2000/svg" xmlns:xlink="http://www.w3.org/1999/xlink">
    <!-- Generator: Sketch 52.3 (67297) - http://www.bohemiancoding.com/sketch -->
    <title>资源 17</title>
    <desc>Created with Sketch.</desc>
    <defs>
        <filter x="-78.6%" y="-110.9%" width="257.1%" height="321.7%" filterUnits="objectBoundingBox" id="filter-1">
            <feGaussianBlur stdDeviation="7.96020419e-16 -13" in="SourceGraphic"></feGaussianBlur>
        </filter>
    </defs>
    <g id="组件" stroke="none" stroke-width="1" fill="none" fill-rule="evenodd">
        <g id="资源-17" transform="translate(3.000000, 39.000000)" fill="#FFD441" fill-rule="nonzero">
            <rect id="矩形" x="22.6083333" y="15.9288889" width="8.50944444" height="6.02555556"></rect>
            <path d="M19.4444444,13.6622222 L34.3666667,13.6622222 L34.3666667,24.2116667 L19.4444444,24.2116667 L19.4444444,13.6622222 Z M33.4222222,23.5505556 L33.4222222,14.3611111 L20.3888889,14.3611111 L20.3888889,23.5694444 L33.4222222,23.5694444 L33.4222222,23.5505556 Z" id="形状"></path>
            <path d="M10.5288889,8.19388889 L18.5,8.19388889 L18.5,13.7944444 L10.5666667,13.7944444 L10.5288889,8.19388889 Z M17.5555556,13.1333333 L17.5555556,8.86444444 L11.5111111,8.86444444 L11.5111111,13.1333333 L17.5555556,13.1333333 Z" id="形状" opacity="0.3"></path>
            <rect id="矩形" opacity="0.7" x="12.3611111" y="9.48777778" width="4.25944444" height="3.00333333"></rect>
            <path d="M34.4894444,24.2211111 L42.4133333,24.2211111 L42.4133333,29.8311111 L34.4894444,29.8311111 L34.4894444,24.2211111 Z M41.4688889,29.1605556 L41.4688889,24.8822222 L35.4338889,24.8822222 L35.4338889,29.1605556 L41.4688889,29.1605556 Z" id="形状" opacity="0.3"></path>
            <rect id="矩形" opacity="0.7" x="36.3216667" y="25.515" width="4.25" height="3.01277778"></rect>
            <path d="M26.8677778,0.194444444 C41.4594444,0.194444444 53.3122222,8.59055556 53.3122222,18.9133333 C53.3122222,29.2361111 41.45,37.6322222 26.8677778,37.6322222 C15.4683333,37.6322222 5.73111111,32.5133333 2.01,25.3544444 C2.31140683,25.2938841 2.60809118,25.2118224 2.89777778,25.1088889 C6.47722222,32.0505556 15.8744444,37.0277778 26.8677778,37.0277778 C40.9305556,37.0277778 52.3677778,28.9338889 52.3677778,18.9794444 C52.3677778,9.025 40.9211111,0.931111111 26.8677778,0.931111111 C13.0411111,0.931111111 1.74555556,8.74166667 1.36777778,18.4505556 C1.14111111,18.4505556 0.914444444,18.4505556 0.678333333,18.4505556 L0.404444444,18.4505556 C0.82,8.32611111 12.5311111,0.194444444 26.8677778,0.194444444 Z" id="路径" stroke="#FFD441" stroke-width="5" opacity="0.7" filter="url(#filter-1)"></path>
        </g>
    </g>
</svg>