{
    "asset": {
        "generator": "COLLADA2GLTF",
        "version": "2.0"
    },
    "scene": 0,
    "scenes": [
        {
            "nodes": [
                0
            ]
        }
    ],
    "nodes": [
        {
            "children": [
                1
            ],
            "matrix": [
                0.0010000000474974514,
                0.0,
                0.0,
                0.0,
                0.0,
                0.0,
                -0.0010000000474974514,
                0.0,
                0.0,
                0.0010000000474974514,
                0.0,
                0.0,
                0.0,
                0.0,
                0.0,
                1.0
            ]
        },
        {
            "mesh": 0,
            "children": [
                8,
                7,
                6,
                5,
                4,
                3,
                2
            ],
            "matrix": [
                0.2746291160583496,
                0.0,
                0.0,
                0.0,
                0.0,
                0.2746291160583496,
                0.0,
                0.0,
                0.0,
                0.0,
                0.2746291160583496,
                0.0,
                748.1832885742188,
                55.71207046508789,
                0.0,
                1.0
            ]
        },
        {
            "mesh": 1,
            "matrix": [
                -0.9504349231719972,
                0.0,
                8.534258022496744e-11,
                0.0,
                0.0,
                1.0,
                0.0,
                0.0,
                -8.979318677493353e-11,
                0.0,
                -1.0,
                0.0,
                -2644.05224609375,
                -155.837890625,
                -8827.57421875,
                1.0
            ]
        },
        {
            "mesh": 2,
            "matrix": [
                24.10219955444336,
                0.0,
                0.0,
                0.0,
                0.0,
                24.10219955444336,
                0.0,
                0.0,
                0.0,
                0.0,
                24.10219955444336,
                0.0,
                -216.3046875,
                -4.355347156524658,
                -269.6152038574219,
                1.0
            ]
        },
        {
            "mesh": 3,
            "matrix": [
                24.10219955444336,
                0.0,
                0.0,
                0.0,
                0.0,
                24.10219955444336,
                0.0,
                0.0,
                0.0,
                0.0,
                24.10219955444336,
                0.0,
                -48.721920013427737,
                -185.7388916015625,
                214.15719604492188,
                1.0
            ]
        },
        {
            "mesh": 4,
            "matrix": [
                24.10219955444336,
                0.0,
                0.0,
                0.0,
                0.0,
                24.10219955444336,
                0.0,
                0.0,
                0.0,
                0.0,
                24.10219955444336,
                0.0,
                -48.721920013427737,
                -185.7388916015625,
                214.15719604492188,
                1.0
            ]
        },
        {
            "mesh": 5,
            "matrix": [
                25.281679153442384,
                0.0,
                0.0,
                0.0,
                0.0,
                25.281679153442384,
                0.0,
                0.0,
                0.0,
                0.0,
                25.281679153442384,
                0.0,
                -21.961910247802736,
                -30.057538986206056,
                -5.5037841796875,
                1.0
            ]
        },
        {
            "mesh": 6
        },
        {
            "mesh": 7,
            "matrix": [
                -1.0,
                0.0,
                8.979318677493353e-11,
                0.0,
                0.0,
                1.0,
                0.0,
                0.0,
                -8.979318677493353e-11,
                0.0,
                -1.0,
                0.0,
                -2585.191162109375,
                -126.3875961303711,
                -8515.9794921875,
                1.0
            ]
        }
    ],
    "meshes": [
        {
            "primitives": [],
            "name": "_630_obj"
        },
        {
            "primitives": [
                {
                    "attributes": {
                        "NORMAL": 1,
                        "POSITION": 2
                    },
                    "indices": 0,
                    "mode": 4,
                    "material": 0
                }
            ],
            "name": "E"
        },
        {
            "primitives": [
                {
                    "attributes": {
                        "NORMAL": 4,
                        "POSITION": 5
                    },
                    "indices": 3,
                    "mode": 4,
                    "material": 1
                }
            ],
            "name": "D"
        },
        {
            "primitives": [
                {
                    "attributes": {
                        "NORMAL": 7,
                        "POSITION": 8
                    },
                    "indices": 6,
                    "mode": 4,
                    "material": 2
                }
            ],
            "name": "B"
        },
        {
            "primitives": [
                {
                    "attributes": {
                        "NORMAL": 10,
                        "POSITION": 11
                    },
                    "indices": 9,
                    "mode": 4,
                    "material": 3
                }
            ],
            "name": "A"
        },
        {
            "primitives": [
                {
                    "attributes": {
                        "NORMAL": 13,
                        "POSITION": 14
                    },
                    "indices": 12,
                    "mode": 4,
                    "material": 4
                }
            ],
            "name": "F"
        },
        {
            "primitives": [
                {
                    "attributes": {
                        "NORMAL": 16,
                        "POSITION": 17
                    },
                    "indices": 15,
                    "mode": 4,
                    "material": 5
                }
            ],
            "name": "G"
        },
        {
            "primitives": [
                {
                    "attributes": {
                        "NORMAL": 19,
                        "POSITION": 20
                    },
                    "indices": 18,
                    "mode": 4,
                    "material": 6
                }
            ],
            "name": "C"
        }
    ],
    "accessors": [
        {
            "bufferView": 0,
            "byteOffset": 0,
            "componentType": 5123,
            "count": 750,
            "max": [
                157
            ],
            "min": [
                0
            ],
            "type": "SCALAR"
        },
        {
            "bufferView": 1,
            "byteOffset": 0,
            "componentType": 5126,
            "count": 158,
            "max": [
                0.9341779351234436,
                0.9816063046455384,
                0.6764360070228577
            ],
            "min": [
                -0.848848283290863,
                -0.9747496247291564,
                -1.0
            ],
            "type": "VEC3"
        },
        {
            "bufferView": 1,
            "byteOffset": 1896,
            "componentType": 5126,
            "count": 158,
            "max": [
                8597.4326171875,
                7103.09716796875,
                6160.53515625
            ],
            "min": [
                -8597.4326171875,
                -7103.09716796875,
                -8896.4130859375
            ],
            "type": "VEC3"
        },
        {
            "bufferView": 0,
            "byteOffset": 1500,
            "componentType": 5123,
            "count": 4716,
            "max": [
                1845
            ],
            "min": [
                0
            ],
            "type": "SCALAR"
        },
        {
            "bufferView": 1,
            "byteOffset": 3792,
            "componentType": 5126,
            "count": 1846,
            "max": [
                1.0,
                1.0,
                1.0
            ],
            "min": [
                -1.0,
                -1.0,
                -1.0
            ],
            "type": "VEC3"
        },
        {
            "bufferView": 1,
            "byteOffset": 25944,
            "componentType": 5126,
            "count": 1846,
            "max": [
                47.95349884033203,
                147.02279663085938,
                7.407099723815918
            ],
            "min": [
                -256.55780029296877,
                -156.88758850097657,
                -22.27449989318848
            ],
            "type": "VEC3"
        },
        {
            "bufferView": 0,
            "byteOffset": 10932,
            "componentType": 5123,
            "count": 2220,
            "max": [
                669
            ],
            "min": [
                0
            ],
            "type": "SCALAR"
        },
        {
            "bufferView": 1,
            "byteOffset": 48096,
            "componentType": 5126,
            "count": 670,
            "max": [
                1.0,
                1.0,
                1.0
            ],
            "min": [
                -1.0,
                -1.0,
                -1.0
            ],
            "type": "VEC3"
        },
        {
            "bufferView": 1,
            "byteOffset": 56136,
            "componentType": 5126,
            "count": 670,
            "max": [
                204.4839019775391,
                301.6781921386719,
                184.97019958496098
            ],
            "min": [
                -409.54840087890627,
                -296.19769287109377,
                135.5822906494141
            ],
            "type": "VEC3"
        },
        {
            "bufferView": 0,
            "byteOffset": 15372,
            "componentType": 5123,
            "count": 2160,
            "max": [
                719
            ],
            "min": [
                0
            ],
            "type": "SCALAR"
        },
        {
            "bufferView": 1,
            "byteOffset": 64176,
            "componentType": 5126,
            "count": 720,
            "max": [
                0.707099974155426,
                0.7031999826431274,
                0.707099974155426
            ],
            "min": [
                -0.707099974155426,
                -0.7031999826431274,
                -0.707099974155426
            ],
            "type": "VEC3"
        },
        {
            "bufferView": 1,
            "byteOffset": 72816,
            "componentType": 5126,
            "count": 720,
            "max": [
                197.081298828125,
                292.3544006347656,
                198.94789123535157
            ],
            "min": [
                -402.1457824707031,
                -303.590087890625,
                118.35979461669922
            ],
            "type": "VEC3"
        },
        {
            "bufferView": 0,
            "byteOffset": 19692,
            "componentType": 5123,
            "count": 49461,
            "max": [
                14238
            ],
            "min": [
                0
            ],
            "type": "SCALAR"
        },
        {
            "bufferView": 1,
            "byteOffset": 81456,
            "componentType": 5126,
            "count": 14239,
            "max": [
                1.0,
                1.0,
                1.0
            ],
            "min": [
                -1.0,
                -1.0,
                -1.0
            ],
            "type": "VEC3"
        },
        {
            "bufferView": 1,
            "byteOffset": 252324,
            "componentType": 5126,
            "count": 14239,
            "max": [
                240.4243927001953,
                302.4071044921875,
                11.45639991760254
            ],
            "min": [
                -447.2540283203125,
                -311.9230041503906,
                -562.614013671875
            ],
            "type": "VEC3"
        },
        {
            "bufferView": 0,
            "byteOffset": 118614,
            "componentType": 5123,
            "count": 105,
            "max": [
                29
            ],
            "min": [
                0
            ],
            "type": "SCALAR"
        },
        {
            "bufferView": 1,
            "byteOffset": 423192,
            "componentType": 5126,
            "count": 30,
            "max": [
                0.927770733833313,
                0.982689082622528,
                0.9946017265319824
            ],
            "min": [
                -0.9380893111228944,
                -0.9825134873390198,
                -0.26882830262184145
            ],
            "type": "VEC3"
        },
        {
            "bufferView": 1,
            "byteOffset": 423552,
            "componentType": 5126,
            "count": 30,
            "max": [
                4210.7412109375,
                6998.33544921875,
                -1116.985107421875
            ],
            "min": [
                -9375.564453125,
                -4923.564453125,
                -2127.984130859375
            ],
            "type": "VEC3"
        },
        {
            "bufferView": 0,
            "byteOffset": 118824,
            "componentType": 5123,
            "count": 2550,
            "max": [
                610
            ],
            "min": [
                0
            ],
            "type": "SCALAR"
        },
        {
            "bufferView": 1,
            "byteOffset": 423912,
            "componentType": 5126,
            "count": 611,
            "max": [
                0.9936767220497133,
                0.9958782196044922,
                0.9999611377716065
            ],
            "min": [
                -0.9935789108276368,
                -0.9966475367546082,
                -0.999338924884796
            ],
            "type": "VEC3"
        },
        {
            "bufferView": 1,
            "byteOffset": 431244,
            "componentType": 5126,
            "count": 611,
            "max": [
                7720.26416015625,
                7080.09130859375,
                -2942.296142578125
            ],
            "min": [
                -7720.26513671875,
                -7081.12939453125,
                -8145.15625
            ],
            "type": "VEC3"
        }
    ],
    "materials": [
        {
            "pbrMetallicRoughness": {
                "baseColorFactor": [
                    0.0,
                    0.062745101749897,
                    0.3294118046760559,
                    1.0
                ],
                "metallicFactor": 0.0
            },
            "emissiveFactor": [
                0.02745098061859608,
                0.062745101749897,
                0.19215689599514008
            ],
            "name": "_3_-_Default"
        },
        {
            "pbrMetallicRoughness": {
                "baseColorFactor": [
                    0.0,
                    0.8901960849761963,
                    1.0,
                    1.0
                ],
                "metallicFactor": 0.0
            },
            "emissiveFactor": [
                0.062745101749897,
                0.19215689599514008,
                0.4078432023525238
            ],
            "name": "_0630_200_100_90default"
        },
        {
            "pbrMetallicRoughness": {
                "baseColorFactor": [
                    0.0,
                    0.062745101749897,
                    0.3294118046760559,
                    1.0
                ],
                "metallicFactor": 0.0
            },
            "emissiveFactor": [
                0.02745098061859608,
                0.062745101749897,
                0.19215689599514008
            ],
            "name": "_3_-_Default"
        },
        {
            "pbrMetallicRoughness": {
                "baseColorFactor": [
                    0.0,
                    0.8901960849761963,
                    1.0,
                    1.0
                ],
                "metallicFactor": 0.0
            },
            "emissiveFactor": [
                0.062745101749897,
                0.19215689599514008,
                0.4078432023525238
            ],
            "name": "_0630_200_100_90default"
        },
        {
            "pbrMetallicRoughness": {
                "baseColorFactor": [
                    0.0,
                    0.8901960849761963,
                    1.0,
                    1.0
                ],
                "metallicFactor": 0.0
            },
            "emissiveFactor": [
                0.062745101749897,
                0.19215689599514008,
                0.4078432023525238
            ],
            "name": "_0630_200_100_90default"
        },
        {
            "pbrMetallicRoughness": {
                "baseColorFactor": [
                    0.0,
                    0.0313725508749485,
                    0.46666669845581057,
                    1.0
                ],
                "metallicFactor": 0.0
            },
            "emissiveFactor": [
                0.03529411926865578,
                0.2039216011762619,
                0.3490196168422699
            ],
            "name": "_3_-_Defau"
        },
        {
            "pbrMetallicRoughness": {
                "baseColorFactor": [
                    0.0,
                    0.062745101749897,
                    0.3294118046760559,
                    1.0
                ],
                "metallicFactor": 0.0
            },
            "emissiveFactor": [
                0.02745098061859608,
                0.062745101749897,
                0.19215689599514008
            ],
            "name": "_3_-_Default"
        }
    ],
    "bufferViews": [
        {
            "buffer": 0,
            "byteOffset": 438576,
            "byteLength": 123924,
            "target": 34963
        },
        {
            "buffer": 0,
            "byteOffset": 0,
            "byteLength": 438576,
            "byteStride": 12,
            "target": 34962
        }
    ],
    "buffers": [
        {
            "byteLength": 562500,
            "uri": "data:application/octet-stream;base64,"
        }
    ]
}
