<?xml version="1.0" encoding="UTF-8"?>
<svg width="38px" height="51px" viewBox="0 0 38 51" version="1.1" xmlns="http://www.w3.org/2000/svg" xmlns:xlink="http://www.w3.org/1999/xlink">
    <!-- Generator: Sketch 52.3 (67297) - http://www.bohemiancoding.com/sketch -->
    <title>资源 14</title>
    <desc>Created with Sketch.</desc>
    <g id="页面-1" stroke="none" stroke-width="1" fill="none" fill-rule="evenodd">
        <g id="浦江站" transform="translate(-2312.000000, -474.000000)" fill-rule="nonzero">
            <g id="资源-14" transform="translate(2312.000000, 474.000000)">
                <g id="编组">
                    <polygon id="路径" fill="#9DBEC5" points="10.7279994 9.90399941 11.8559993 9.24799945 11.7839993 34.8719979 10.6559994 35.5279979"></polygon>
                    <polygon id="路径" fill="#CCF6FF" points="18.2959989 11.2159993 18.2879989 14.2639991 10.7279994 9.90399941 10.6559994 35.5279979 7.48799955 33.695998 7.55999955 8.07199952 0 3.70399978 0.00799999952 0.655999961"></polygon>
                    <polygon id="路径" fill="#9DBEC5" points="18.2959989 11.2159993 19.4239988 10.5599994 19.4159988 13.6079992 18.2879989 14.2639991"></polygon>
                    <polygon id="路径" fill="#B0D4DC" points="0.00799999952 0.655999961 1.13599993 0 19.4239988 10.5599994 18.2959989 11.2159993"></polygon>
                </g>
                <g id="编组" transform="translate(21.599999, 15.199999)">
                    <polygon id="路径" fill="#B0D4DC" points="0.679999959 24.0639986 1.80799989 23.4079986 7.35199956 26.6079984 6.22399963 27.2639984"></polygon>
                    <polygon id="路径" fill="#B0D4DC" points="9.35999944 29.0719983 10.4879994 28.4159983 15.4959991 31.3119981 14.3679991 31.9599981"></polygon>
                    <polygon id="路径" fill="#9DBEC5" points="14.3679991 31.9599981 15.4959991 31.3119981 15.4879991 34.279998 14.3599991 34.9359979"></polygon>
                    <g transform="translate(1.600000, 0.000000)" id="路径">
                        <polyline fill="#93B1B8" points="0.263999984 1.03199994 1.39199992 0.375999978 1.6719999 0.479999971 0.543999968 1.13599993 0.263999984 1.03199994"></polyline>
                        <path d="M0.543999968,1.13599993 L1.6719999,0.479999971 C1.99999988,0.591999965 2.31199986,0.695999959 2.61599984,0.783999953 L1.48799991,1.43999991 C1.18399993,1.35199992 0.871999948,1.24799993 0.543999968,1.13599993" fill="#8FACB3"></path>
                        <path d="M1.48799991,1.43999991 L2.61599984,0.799999952 C2.89599983,0.887999947 3.15999981,0.959999943 3.4159998,1.02399994 L2.28799986,1.6799999 C2.03199988,1.6159999 1.76799989,1.54399991 1.48799991,1.45599991" fill="#8BA7AD"></path>
                        <path d="M2.28799986,1.6639999 L3.4159998,1.00799994 L4.11999975,1.16799993 L2.99999982,1.82399989 C2.76799984,1.77599989 2.53599985,1.7279999 2.28799986,1.6639999" fill="#87A2A8"></path>
                        <path d="M2.99999982,1.82399989 L4.11999975,1.16799993 C4.34399974,1.20799993 4.55999973,1.24799993 4.76799972,1.27199992 L3.63999978,1.92799989 C3.4319998,1.92799989 3.21599981,1.86399989 2.99999982,1.82399989" fill="#839DA3"></path>
                        <path d="M3.63999978,1.92799989 L4.79999971,1.27199992 C5.00403474,1.30437988 5.20966604,1.32574417 5.41599968,1.33599992 L4.28799974,1.99199988 C4.08799976,1.99199988 3.88799977,1.99199988 3.67199978,1.92799989" fill="#7E999E"></path>
                        <polyline fill="#7A9499" points="4.25599975 1.99199988 5.38399968 1.33599992 5.99199964 1.33599992 4.86399971 1.99199988 4.25599975 1.99199988"></polyline>
                        <path d="M4.86399971,2.01599988 L5.99199964,1.35999992 C6.19199963,1.35999992 6.38399962,1.35999992 6.57599961,1.35999992 L5.44799968,2.01599988 C5.25599969,2.01599988 5.0639997,2.01599988 4.86399971,2.01599988" fill="#768F94"></path>
                    </g>
                    <path d="M9.43199944,3.3679998 L9.35999944,29.0719983 L14.3999991,31.9999981 L14.3999991,34.9679979 L0.67199996,27.0319984 L0.67199996,24.0639986 L6.21599963,27.2639984 L6.27999963,5.85599965 L1.85599989,3.3039998 L1.85599989,1.03199994 C3.4938231,1.7245233 5.26279952,2.05211153 7.03999958,1.99199988 L9.43199944,3.3679998 Z" id="路径" fill="#CCF6FF"></path>
                    <polygon id="路径" fill="#9DBEC5" points="9.43199944 3.3679998 10.5599994 2.71199984 10.4879994 28.4159983 9.35999944 29.0719983"></polygon>
                    <polygon id="路径" fill="#B0D4DC" points="7.04799958 1.99199988 8.17599951 1.33599992 10.5599994 2.71199984 9.43199944 3.3679998"></polygon>
                </g>
            </g>
        </g>
    </g>
</svg>