<?xml version="1.0" encoding="UTF-8"?>
<svg width="38px" height="51px" viewBox="0 0 38 51" version="1.1" xmlns="http://www.w3.org/2000/svg" xmlns:xlink="http://www.w3.org/1999/xlink">
    <!-- Generator: Sketch 52.3 (67297) - http://www.bohemiancoding.com/sketch -->
    <title>资源 13</title>
    <desc>Created with Sketch.</desc>
    <g id="页面-1" stroke="none" stroke-width="1" fill="none" fill-rule="evenodd">
        <g id="浦江站" transform="translate(-3416.000000, -1041.000000)" fill-rule="nonzero">
            <g id="资源-13" transform="translate(3416.000000, 1041.000000)">
                <g id="编组">
                    <polygon id="路径" fill="#9DBEC5" points="10.7279994 9.90399941 11.8559993 9.24799945 11.7839993 34.8719979 10.6559994 35.5279979"></polygon>
                    <polygon id="路径" fill="#CCF6FF" points="18.2959989 11.2159993 18.2879989 14.2639991 10.7279994 9.90399941 10.6559994 35.5279979 7.48799955 33.695998 7.55999955 8.07199952 0 3.70399978 0.00799999952 0.655999961"></polygon>
                    <polygon id="路径" fill="#9DBEC5" points="18.2959989 11.2159993 19.4239988 10.5599994 19.4159988 13.6079992 18.2879989 14.2639991"></polygon>
                    <polygon id="路径" fill="#B0D4DC" points="0.00799999952 0.655999961 1.13599993 0 19.4239988 10.5599994 18.2959989 11.2159993"></polygon>
                </g>
                <g id="编组" transform="translate(19.999999, 13.599999)">
                    <path d="M0.799999952,25.6479985 L1.92799989,24.9919985 C3.46308216,24.3435498 4.9565986,23.6007992 6.39999962,22.7679986 L5.27199969,23.4239986 C3.82859867,24.2567992 2.33508223,24.9995498 0.799999952,25.6479985" id="路径" fill="#6A8085"></path>
                    <g transform="translate(4.800000, 26.399998)" id="路径">
                        <path d="M0.67199996,1.25599993 L1.79999989,0.607999964 C2.31199986,0.855999949 2.85599983,1.11199993 3.3999998,1.40799992 L2.27199986,2.06399988 C1.7199999,1.78399989 1.17599993,1.51999991 0.67199996,1.26399992" fill="#9BBBC2"></path>
                        <path d="M2.27999986,2.04799988 L3.4079998,1.39199992 C4.00799976,1.6879999 4.61599972,1.99199988 5.19199969,2.30399986 L4.06399976,2.95999982 C3.48799979,2.64799984 2.87999983,2.34399986 2.27999986,2.04799988" fill="#9FC0C7"></path>
                        <path d="M4.06399976,2.95999982 L5.19199969,2.30399986 C5.43199968,2.43199986 5.66399966,2.55999985 5.88799965,2.69599984 L4.79999971,3.3519998 C4.57599973,3.21599981 4.34399974,3.08799982 4.10399976,2.95999982" fill="#A3C5CC"></path>
                    </g>
                    <polygon id="路径" fill="#B0D4DC" points="9.55999943 29.7519982 10.6879994 29.0959983 17.599999 33.079998 16.471999 33.735998"></polygon>
                    <polygon id="路径" fill="#9DBEC5" points="16.471999 33.735998 17.599999 33.079998 17.591999 36.1679978 16.463999 36.8239978"></polygon>
                    <path d="M3.19999981,5.30399968 L4.31999974,4.64799972 C4.09147076,4.7852964 3.872321,4.93763221 3.66399978,5.1039997 L2.53599985,5.75999966 C2.74570747,5.59172854 2.96765446,5.43930711 3.19999981,5.30399968" id="路径" fill="#6A8085"></path>
                    <g transform="translate(0.800000, 0.000000)" id="路径">
                        <path d="M0.399999976,2.39999986 L1.52799991,1.7439999 C1.91408932,1.51593658 2.32131546,1.32571911 2.74399984,1.17599993 L1.5999999,1.79999989 C1.1816118,1.96089039 0.779745235,2.16182367 0.399999976,2.39999986" fill="#6A8085"></path>
                        <path d="M1.5999999,1.79999989 L2.72799984,1.14399993 C2.98838185,1.05242087 3.25598658,0.982843637 3.52799979,0.935999944 L2.39999986,1.5999999 C2.12798665,1.6468436 1.86038191,1.71642083 1.5999999,1.80799989" fill="#6E858A"></path>
                        <path d="M2.39999986,1.5999999 L3.52799979,0.943999944 C3.70731033,0.905034366 3.88906283,0.878306057 4.07199976,0.863999949 L2.94399982,1.51999991 C2.7610629,1.53430602 2.57931039,1.56103433 2.39999986,1.5999999" fill="#728A8F"></path>
                        <path d="M2.92799983,1.51199991 L4.05599976,0.855999949 C4.20522126,0.847827168 4.35477823,0.847827168 4.50399973,0.855999949 L3.3759998,1.51199991 C3.2267783,1.50382713 3.07722133,1.50382713 2.92799983,1.51199991" fill="#768F94"></path>
                        <polyline fill="#7A9499" points="3.3759998 1.48799991 4.50399973 0.799999952 4.90399971 0.799999952 3.77599977 1.45599991 3.3759998 1.45599991"></polyline>
                        <polyline fill="#7E999E" points="3.77599977 1.50399991 4.90399971 0.847999949 5.27999969 0.887999947 4.15199975 1.54399991 3.77599977 1.50399991"></polyline>
                        <polyline fill="#839DA3" points="4.15199975 1.54399991 5.27999969 0.887999947 5.62399966 0.943999944 4.49599973 1.5999999 4.15199975 1.54399991"></polyline>
                        <polyline fill="#87A2A8" points="4.49599973 1.5999999 5.59999967 0.943999944 5.94399965 1.01599994 4.81599971 1.6719999 4.49599973 1.5999999"></polyline>
                        <polyline fill="#8BA7AD" points="4.83999971 1.6719999 5.96799964 1.01599994 6.30399962 1.11199993 5.17599969 1.76799989 4.83999971 1.6719999"></polyline>
                        <polyline fill="#8FACB3" points="5.17599969 1.76799989 6.30399962 1.11199993 6.6399996 1.22399993 5.51199967 1.87999989 5.17599969 1.76799989"></polyline>
                        <polyline fill="#93B1B8" points="5.51199967 1.87999989 6.6399996 1.22399993 6.97599958 1.35199992 5.84799965 2.00799988 5.51199967 1.87999989"></polyline>
                        <polyline fill="#97B6BD" points="5.84799965 2.00799988 6.97599958 1.35199992 7.32799956 1.49599991 6.19999963 2.15199987 5.84799965 2.00799988"></polyline>
                        <polyline fill="#9BBBC2" points="6.19999963 2.15199987 7.32799956 1.49599991 7.69599954 1.6719999 6.56799961 2.32799986 6.19999963 2.15199987"></polyline>
                        <polyline fill="#9FC0C7" points="6.56799961 2.32799986 7.69599954 1.6719999 8.07999952 1.87199989 6.95199959 2.52799985 6.56799961 2.32799986"></polyline>
                        <polyline fill="#A3C5CC" points="6.95199959 2.52799985 8.07999952 1.87199989 8.3919995 2.04799988 7.26399957 2.70399984 6.95199959 2.52799985"></polyline>
                    </g>
                    <g transform="translate(7.200000, 1.600000)" id="路径">
                        <polyline fill="#A3C5CC" points="0.863999949 1.10399993 1.99199988 0.447999973 2.08799988 0.50399997 0.959999943 1.15999993 0.863999949 1.10399993"></polyline>
                        <polyline fill="#A7CAD1" points="0.959999943 1.15999993 2.08799988 0.50399997 2.49599985 0.751999955 1.36799992 1.40799992 0.959999943 1.15999993"></polyline>
                        <polyline fill="#ABCFD6" points="1.36799992 1.40799992 2.49599985 0.751999955 2.88799983 1.00799994 1.7599999 1.6639999 1.36799992 1.40799992"></polyline>
                        <polyline fill="#AFD4DB" points="1.7599999 1.6639999 2.88799983 1.00799994 3.2719998 1.27999992 2.14399987 1.93599988 1.7599999 1.6639999"></polyline>
                        <polyline fill="#B4D8E0" points="2.14399987 1.93599988 3.2719998 1.27999992 3.63999978 1.55999991 2.51199985 2.21599987 2.14399987 1.93599988"></polyline>
                        <polyline fill="#B8DDE6" points="2.51199985 2.21599987 3.63999978 1.5999999 3.99999976 1.89599989 2.87199983 2.55199985 2.51199985 2.25599987"></polyline>
                        <path d="M2.87199983,2.51199985 L3.99999976,1.85599989 C4.11999975,1.95199988 4.23199975,2.05599988 4.34399974,2.15999987 L3.19999981,2.81599983 C3.08799982,2.71199984 2.97599982,2.60799984 2.85599983,2.51199985" fill="#BCE2EB"></path>
                        <polyline fill="#C0E7F0" points="3.19999981 2.81599983 4.32799974 2.15999987 4.65599972 2.46399985 3.52799979 3.11199981 3.19999981 2.81599983"></polyline>
                        <polyline fill="#C4ECF5" points="3.54399979 3.11199981 4.67199972 2.46399985 4.9839997 2.76799984 3.85599977 3.4239998 3.54399979 3.11199981"></polyline>
                        <polyline fill="#C8F1FA" points="3.85599977 3.4239998 4.9839997 2.76799984 5.26399969 3.05599982 4.13599975 3.71199978 3.85599977 3.4239998"></polyline>
                        <polyline fill="#CCF6FF" points="4.13599975 3.71199978 5.26399969 3.05599982 5.52799967 3.3599998 4.39999974 3.99999976 4.13599975 3.69599978"></polyline>
                        <path d="M4.39999974,3.99999976 L5.52799967,3.3439998 C5.61599967,3.43999979 5.70399966,3.53599979 5.78399966,3.63999978 L4.65599972,4.29599974 C4.57599973,4.19199975 4.48799973,4.09599976 4.39999974,3.99999976" fill="#D2F7FF"></path>
                        <path d="M4.65599972,4.31199974 L5.78399966,3.65599978 L6.03199964,3.95999976 L4.90399971,4.61599972 C4.82399971,4.51199973 4.74399972,4.40799974 4.65599972,4.31199974" fill="#D5F8FF"></path>
                        <polyline fill="#D7F8FF" points="4.90399971 4.61599972 6.03199964 3.99999976 6.31999962 4.37599974 5.19199969 5.0319997 4.90399971 4.65599972"></polyline>
                        <polyline fill="#D8F8FF" points="5.19199969 4.9919997 6.31999962 4.33599974 6.7279996 4.91999971 5.59999967 5.59999967 5.19199969 5.0159997"></polyline>
                        <path d="M5.59999967,5.59999967 L6.7279996,4.94399971 C6.86399959,5.15199969 6.99199958,5.35999968 7.11999958,5.56799967 L5.99199964,6.22399963 C5.86399965,6.01599964 5.73599966,5.79999965 5.59999967,5.59999967" fill="#DAF8FF"></path>
                        <path d="M5.99199964,6.19999963 L7.11999958,5.54399967 C7.24266623,5.74666632 7.35466623,5.94666631 7.45599956,6.14399963 L6.32799962,6.79999959 C6.2266663,6.60266627 6.1146663,6.40266629 5.99199964,6.19999963" fill="#D8F8FF"></path>
                        <path d="M6.32799962,6.79999959 L7.45599956,6.14399963 C7.52799955,6.27999963 7.59999955,6.40799962 7.66399954,6.54399961 L6.53599961,7.19999957 C6.47199961,7.06399958 6.39999962,6.93599959 6.32799962,6.79999959" fill="#D7F8FF"></path>
                        <path d="M6.53599961,7.19999957 L7.66399954,6.54399961 C7.71999954,6.6479996 7.76799954,6.7519996 7.81599953,6.85599959 L6.6879996,7.51199955 C6.6399996,7.40799956 6.59199961,7.30399956 6.53599961,7.19999957" fill="#D5F8FF"></path>
                        <polyline fill="#D2F7FF" points="6.6879996 7.51199955 7.81599953 6.85599959 7.99999952 7.19999957 6.87199959 7.85599953 6.7279996 7.54399955"></polyline>
                        <polyline fill="#CCF6FF" points="6.83199959 7.82399953 7.99999952 7.19999957 8.13599952 7.51199955 7.00799958 8.16799951 6.87199959 7.85599953"></polyline>
                        <polyline fill="#C8F1FA" points="6.96799958 8.13599952 8.09599952 7.47999955 8.21599951 7.79199954 7.08799958 8.4479995 6.96799958 8.13599952"></polyline>
                        <path d="M7.08799958,8.4479995 L8.21599951,7.79199954 C8.26399951,7.90399953 8.30399951,8.01599952 8.3439995,8.12799952 L7.19999957,8.79999948 C7.15999957,8.68799948 7.11999958,8.57599949 7.07199958,8.4639995" fill="#C4ECF5"></path>
                        <polyline fill="#C0E7F0" points="7.19999957 8.79999948 8.3279995 8.14399951 8.4479995 8.48799949 7.31999956 9.14399945 7.19999957 8.79999948"></polyline>
                        <polyline fill="#BCE2EB" points="7.33599956 9.12799946 8.4639995 8.4719995 8.58399949 8.83999947 7.45599956 9.49599943 7.33599956 9.12799946"></polyline>
                        <path d="M7.45599956,9.49599943 L8.58399949,8.83999947 L8.69599948,9.21599945 L7.56799955,9.87199941 C7.52799955,9.74399942 7.49599955,9.61599943 7.45599956,9.49599943" fill="#B8DDE6"></path>
                        <path d="M7.56799955,9.87199941 L8.69599948,9.21599945 C8.69599948,9.35199944 8.75999948,9.47999943 8.79999948,9.61599943 L7.67199954,10.2719994 C7.67199954,10.1359994 7.59999955,10.0079994 7.56799955,9.87199941" fill="#B4D8E0"></path>
                        <path d="M7.67199954,10.2719994 L8.79999948,9.59999943 C8.79999948,9.73599942 8.86399947,9.87199941 8.88799947,10.0079994 L7.75999954,10.6639994 C7.75999954,10.5279994 7.70399954,10.3919994 7.67199954,10.2559994" fill="#AFD4DB"></path>
                        <path d="M7.75999954,10.6799994 L8.88799947,10.0239994 C8.88799947,10.1599994 8.95199947,10.2959994 8.97599946,10.4399994 L7.84799953,11.0959993 C7.84799953,10.9519993 7.79199954,10.8159994 7.75999954,10.6799994" fill="#ABCFD6"></path>
                        <polyline fill="#A7CAD1" points="7.84799953 11.0959993 8.97599946 10.4399994 9.04799946 10.8639994 7.91999953 11.5119993 7.84799953 11.0959993"></polyline>
                        <path d="M7.91999953,11.5119993 L9.04799946,10.8639994 C9.04799946,11.0079993 9.04799946,11.1519993 9.11199946,11.2959993 L7.99999952,11.9519993 C7.99999952,11.8079993 7.99999952,11.6559993 7.93599953,11.5119993" fill="#A3C5CC"></path>
                        <polyline fill="#9FC0C7" points="7.99999952 11.9519993 9.12799946 11.2959993 9.17599945 11.7359993 7.99999952 12.3919993 7.99999952 11.9519993"></polyline>
                        <path d="M7.99999952,12.3919993 L9.12799946,11.7359993 C9.12799946,11.8879993 9.12799946,12.0399993 9.12799946,12.1919993 L7.99999952,12.8479992 C7.99999952,12.6959992 7.99999952,12.5439993 7.99999952,12.3919993" fill="#9BBBC2"></path>
                        <path d="M8.06399952,12.8479992 L9.19199945,12.1919993 C9.19199945,12.3519993 9.19199945,12.5119993 9.19199945,12.6719992 L8.06399952,13.3279992 C8.06399952,13.1679992 8.06399952,13.0079992 8.06399952,12.8479992" fill="#97B6BD"></path>
                        <path d="M8.08799952,13.3279992 L9.21599945,12.6719992 C9.21599945,12.8239992 9.21599945,12.9759992 9.21599945,13.1279992 L8.08799952,13.7839992 C8.08799952,13.6319992 8.08799952,13.4799992 8.08799952,13.3279992" fill="#93B1B8"></path>
                        <path d="M8.09599952,13.8079992 L9.22399945,13.1519992 C9.22399945,13.3119992 9.22399945,13.4639992 9.22399945,13.6079992 L8.09599952,14.2639991 C8.09599952,14.1199992 8.09599952,13.9599992 8.09599952,13.8079992" fill="#8FACB3"></path>
                        <path d="M8.08799952,14.2639991 L9.21599945,13.5999992 C9.21599945,13.7599992 9.21599945,13.9119992 9.21599945,14.0639992 L8.08799952,14.7199991 C8.08799952,14.5679991 8.08799952,14.4159991 8.08799952,14.2559992" fill="#8BA7AD"></path>
                        <polyline fill="#87A2A8" points="8.05599952 14.7279991 9.18399945 14.0719992 9.13599946 14.5519991 7.99999952 15.1999991 8.04799952 14.7199991"></polyline>
                        <path d="M7.99999952,15.1999991 L9.12799946,14.5439991 C9.12799946,14.7199991 9.07999946,14.8879991 9.04799946,15.0559991 L7.91999953,15.7119991 C7.91999953,15.5439991 7.97599952,15.3679991 7.99999952,15.1999991" fill="#839DA3"></path>
                        <path d="M7.92799953,15.7199991 L9.05599946,15.0639991 C9.05599946,15.2399991 8.99199946,15.4159991 8.95199947,15.5919991 L7.82399953,16.247999 C7.82399953,16.071999 7.89599953,15.8959991 7.92799953,15.7199991" fill="#7E999E"></path>
                        <path d="M7.82399953,16.247999 L8.95199947,15.5919991 C8.90399947,15.7999991 8.84799947,15.999999 8.79199948,16.199999 L7.66399954,16.847999 C7.72799954,16.655999 7.77599954,16.455999 7.82399953,16.247999" fill="#7A9499"></path>
                        <path d="M7.66399954,16.847999 L8.79999948,16.199999 C8.73599948,16.431999 8.65599948,16.655999 8.57599949,16.879999 L7.44799956,17.535999 C7.52799955,17.311999 7.60799955,17.087999 7.67199954,16.847999" fill="#768F94"></path>
                        <path d="M7.43999956,17.535999 L8.56799949,16.879999 C8.4639995,17.159999 8.3439995,17.431999 8.21599951,17.6799989 L7.08799958,18.3999989 C7.21599957,18.1279989 7.33599956,17.8559989 7.43999956,17.599999" fill="#728A8F"></path>
                        <path d="M7.08799958,18.3999989 L8.21599951,17.7439989 C8.03113017,18.1431358 7.81722253,18.5281696 7.57599955,18.8959989 L6.44799962,19.5519988 C6.6892226,19.1841695 6.90313024,18.7991358 7.08799958,18.3999989" fill="#6E858A"></path>
                        <path d="M6.44799962,19.5119988 L7.57599955,18.8559989 C5.96129242,21.1649743 3.81583503,23.0525378 1.31999992,24.3599985 L0.191999989,25.0159985 C2.68783509,23.7085378 4.83329248,21.8209742 6.44799962,19.5119988" fill="#6A8085"></path>
                    </g>
                    <path d="M8.06399952,2.70399984 C12.5323595,5.36501683 15.2682952,10.1833035 15.2639991,15.3839991 C15.2639991,21.0959987 11.3199993,24.6719985 5.43999968,27.6559984 C6.7359996,28.2879983 8.26399951,29.0239983 9.52799943,29.7519982 L16.439999,33.751998 L16.439999,36.7999978 L0.799999952,27.7599983 L0.799999952,25.6479985 C8.64799948,22.3039987 12.2799993,18.6799989 12.2879993,13.7519992 C12.3847966,10.3518062 10.6339874,7.16545581 7.71199954,5.42399968 C6.10360032,4.36296716 3.98597609,4.50022058 2.52799985,5.75999966 L0.719999957,2.67999984 C2.75199984,1.31999992 4.90399971,0.871999948 8.06399952,2.70399984 Z" id="路径" fill="#CCF6FF"></path>
                </g>
            </g>
        </g>
    </g>
</svg>