<?xml version="1.0" encoding="UTF-8"?>
<svg width="133px" height="105px" viewBox="0 0 133 105" version="1.1" xmlns="http://www.w3.org/2000/svg" xmlns:xlink="http://www.w3.org/1999/xlink">
    <!-- Generator: Sketch 52.3 (67297) - http://www.bohemiancoding.com/sketch -->
    <title>资源 15</title>
    <desc>Created with Sketch.</desc>
    <g id="页面-1" stroke="none" stroke-width="1" fill="none" fill-rule="evenodd">
        <g id="浦江站" transform="translate(-2560.000000, -1410.000000)" fill-rule="nonzero">
            <g id="资源-15" transform="translate(2560.000000, 1410.000000)">
                <g id="编组">
                    <polygon id="路径" fill="#9DBEC5" points="2.52799985 34.119998 3.65599978 33.463998 3.64799978 35.4239979 2.51999985 36.0799978"></polygon>
                    <polygon id="路径" fill="#B0D4DC" points="4.79999971 26.6479984 5.92799965 25.9919985 13.7599992 30.5199982 12.6319992 31.1759981"></polygon>
                    <polygon id="路径" fill="#B0D4DC" points="2.53599985 31.4159981 3.66399978 30.7599982 26.4399984 43.9119974 25.3119985 44.5679973"></polygon>
                    <polygon id="路径" fill="#9DBEC5" points="2.61599984 4.80799971 3.73599978 4.15999975 3.66399978 30.7599982 2.53599985 31.4159981"></polygon>
                    <polygon id="路径" fill="#B0D4DC" points="6.25599963 18.3999989 7.38399956 17.7439989 13.7839992 21.4399987 12.6559992 22.0959987"></polygon>
                    <polygon id="路径" fill="#9DBEC5" points="15.0319991 25.9759985 16.159999 25.3199985 16.135999 31.8879981 15.0079991 32.5439981"></polygon>
                    <polygon id="路径" fill="#B0D4DC" points="15.0079991 32.5439981 16.135999 31.8879981 24.4879985 36.7119978 23.3599986 37.3679978"></polygon>
                    <polygon id="路径" fill="#9DBEC5" points="23.3599986 37.3679978 24.4879985 36.7119978 24.4799985 39.1759977 23.3519986 39.8319976"></polygon>
                    <polygon id="路径" fill="#7A9499" points="17.167999 28.9279983 18.2959989 28.2719983 19.9039988 28.1839983 18.7759989 28.8399983"></polygon>
                    <g transform="translate(18.399999, 27.999998)" id="路径">
                        <path d="M0.375999978,0.83999995 L1.50399991,0.183999989 C1.88799989,0.799999952 2.30399986,1.47199991 2.70399984,2.15999987 L1.5999999,2.81599983 C1.19999993,2.12799987 0.799999952,1.44799991 0.399999976,0.83999995" fill="#DAF8FF"></path>
                        <path d="M1.5999999,2.81599983 L2.72799984,2.15999987 C3.12799981,2.84799983 3.52799979,3.54399979 3.86399977,4.19999975 L2.73599984,4.85599971 C2.38399986,4.19999975 1.99999988,3.50399979 1.5999999,2.81599983" fill="#D8F8FF"></path>
                        <path d="M2.71199984,4.85599971 L3.83999977,4.19999975 C4.02399976,4.54399973 4.19199975,4.87199971 4.35199974,5.18399969 L3.19999981,5.83999965 C3.03999982,5.52799967 2.87199983,5.19999969 2.68799984,4.85599971" fill="#D7F8FF"></path>
                        <path d="M3.19999981,5.83999965 L4.32799974,5.18399969 C4.42399974,5.39199968 4.51999973,5.59199967 4.61599972,5.78399966 L3.48799979,6.43999962 C3.3999998,6.24799963 3.2959998,6.04799964 3.19999981,5.83999965" fill="#D5F8FF"></path>
                        <polyline fill="#D2F7FF" points="3.51199979 6.43999962 4.63999972 5.78399966 4.82399971 6.19199963 3.69599978 6.84799959 3.51199979 6.43999962"></polyline>
                        <path d="M3.69599978,6.84799959 L4.79999971,6.19199963 L4.90399971,6.43999962 L3.77599977,7.09599958 C3.77599977,7.01599958 3.71199978,6.92799959 3.67199978,6.84799959" fill="#CCF6FF"></path>
                    </g>
                    <path d="M18.7759989,28.8399983 C20.063625,30.8418634 21.207822,32.932429 22.1999987,35.0959979 L20.4639988,35.2639979 C19.4925117,33.0882343 18.3918837,30.9724641 17.167999,28.9279983 L18.7759989,28.8399983 Z" id="路径" fill="#CCF6FF"></path>
                    <polygon id="路径" fill="#9DBEC5" points="15.0559991 17.9119989 16.183999 17.255999 16.167999 22.8079986 15.0399991 23.4639986"></polygon>
                    <polygon id="路径" fill="#9DBEC5" points="21.8479987 27.3999984 22.9759986 26.7439984 22.9679986 29.2479983 21.8399987 29.9039982"></polygon>
                    <polygon id="路径" fill="#B0D4DC" points="15.0399991 23.4639986 16.167999 22.8079986 22.9759986 26.7439984 21.8479987 27.3999984"></polygon>
                    <polygon id="路径" fill="#CCF6FF" points="23.3599986 37.3679978 23.3519986 39.8319976 4.79199971 29.1199983 4.79999971 26.6479984 12.6319992 31.1759981 12.6479992 24.5999985 6.24799963 20.9039988 6.25599963 18.3999989 12.6559992 22.0959987 12.6719992 16.543999 5.31999968 12.2959993 5.32799968 9.67199942 22.7199986 19.7119988 22.7119986 22.3359987 15.0559991 17.9119989 15.0399991 23.4639986 21.8479987 27.3999984 21.8399987 29.9039982 15.0319991 25.9759985 15.0079991 32.5439981"></polygon>
                    <polygon id="路径" fill="#B0D4DC" points="5.32799968 9.67199942 6.45599962 9.01599946 23.8479986 19.0559989 22.7199986 19.7119988"></polygon>
                    <polygon id="路径" fill="#9DBEC5" points="22.7199986 19.7119988 23.8479986 19.0559989 23.8399986 21.6799987 22.7119986 22.3359987"></polygon>
                    <polygon id="路径" fill="#9DBEC5" points="28.0159983 16.775999 29.1519983 16.119999 29.0479983 50.087997 27.9279983 50.743997"></polygon>
                    <polygon id="路径" fill="#B0D4DC" points="0.0959999943 0.655999961 1.22399993 0 29.1519983 16.119999 28.0159983 16.775999"></polygon>
                    <path d="M0.0959999943,0.655999961 L27.9999983,16.799999 L27.9199983,50.743997 L25.2959985,49.2239971 L25.2959985,47.2639972 L2.52799985,34.119998 L2.52799985,36.0799978 L0,34.6239979 L0.0959999943,0.655999961 Z M25.3119985,44.5679973 L25.3839985,17.9599989 L2.60799984,4.79999971 L2.53599985,31.4159981 L25.3119985,44.5679973 Z" id="形状" fill="#CCF6FF"></path>
                </g>
                <g id="编组" transform="translate(31.999998, 20.799999)">
                    <polygon id="路径" fill="#9DBEC5" points="9.37599944 36.3759978 10.5039994 35.7199979 10.5039994 37.0079978 9.37599944 37.6639978"></polygon>
                    <polygon id="路径" fill="#9DBEC5" points="9.39999944 28.1999983 10.5279994 27.5439984 10.5119994 33.215998 9.38399944 33.863998"></polygon>
                    <polygon id="路径" fill="#B0D4DC" points="9.38399944 33.863998 10.5119994 33.215998 23.9599986 40.9759976 22.8319986 41.6319975"></polygon>
                    <g transform="translate(0.000000, 19.199999)" id="路径">
                        <path d="M0.351999979,0.871999948 L1.47999991,0.215999987 C1.85599989,0.359999979 2.22399987,0.49599997 2.59999985,0.623999963 L1.47999991,1.27999992 L0.351999979,0.871999948" fill="#93B1B8"></path>
                        <path d="M1.47999991,1.27999992 L2.59999985,0.623999963 C3.3119998,0.871999948 4.01599976,1.10399993 4.72799972,1.31999992 L3.59999979,1.97599988 C2.89599983,1.7599999 2.18399987,1.52799991 1.47999991,1.27999992" fill="#8FACB3"></path>
                        <path d="M3.59999979,1.97599988 L4.72799972,1.31999992 C5.46399967,1.54399991 6.19199963,1.7439999 6.91999959,1.92799989 L5.79199965,2.58399985 C5.0639997,2.39999986 4.33599974,2.19999987 3.59999979,1.97599988" fill="#8BA7AD"></path>
                        <path d="M5.79199965,2.58399985 L6.91999959,1.92799989 C7.65599954,2.11199987 8.3919995,2.27199986 9.11999946,2.41599986 L7.99999952,3.07199982 C7.27199957,2.92799983 6.53599961,2.76799984 5.79999965,2.58399985" fill="#87A2A8"></path>
                        <path d="M7.99999952,3.07199982 L9.11999946,2.39999986 C9.83999941,2.54399985 10.5599994,2.66399984 11.2639993,2.75999984 L10.1359994,3.4159998 C9.43199944,3.3199998 8.71199948,3.19999981 7.99199952,3.05599982" fill="#839DA3"></path>
                        <path d="M10.1359994,3.4319998 L11.2639993,2.77599983 C11.9599993,2.86399983 12.6479992,2.93599983 13.3199992,2.98399982 L12.1919993,3.63999978 C11.5199993,3.59199979 10.8319994,3.51999979 10.1359994,3.4319998" fill="#7E999E"></path>
                        <path d="M12.1919993,3.63999978 L13.3199992,2.98399982 C13.8479992,3.02399982 14.3679991,3.04799982 14.8719991,3.05599982 L13.7439992,3.71199978 C13.2399992,3.71199978 12.7199992,3.71199978 12.1919993,3.63999978" fill="#7A9499"></path>
                    </g>
                    <polygon id="路径" fill="#9DBEC5" points="4.27999974 5.17599969 5.40799968 4.51999973 5.39999968 9.17599945 4.27199975 9.83199941"></polygon>
                    <g transform="translate(10.399999, 14.399999)" id="路径">
                        <path d="M0.67199996,0.735999956 L1.79999989,0.0799999952 C1.83932562,0.144138613 1.87407851,0.210971104 1.90399989,0.279999983 L0.799999952,0.935999944 C0.770078578,0.866971065 0.735325683,0.800138574 0.695999959,0.735999956" fill="#D7F8FF"></path>
                        <path d="M0.799999952,0.935999944 L1.92799989,0.279999983 C2.15999987,0.711999958 2.39999986,1.14399993 2.65599984,1.57599991 L1.52799991,2.23199987 C1.27199992,1.79999989 1.03199994,1.36799992 0.799999952,0.935999944" fill="#D8F8FF"></path>
                        <path d="M1.50399991,2.23199987 L2.63199984,1.5999999 C3.16799981,2.52799985 3.75999978,3.45599979 4.39199974,4.39199974 L3.26399981,5.0479997 C2.63199984,4.11199975 2.03999988,3.18399981 1.50399991,2.25599987" fill="#DAF8FF"></path>
                        <path d="M3.26399981,5.0239997 L4.39199974,4.36799974 C4.84799971,5.0319997 5.31999968,5.70399966 5.81599965,6.36799962 L4.68799972,7.02399958 C4.19199975,6.35999962 3.71999978,5.68799966 3.26399981,5.0239997" fill="#D8F8FF"></path>
                        <path d="M4.68799972,7.02399958 L5.81599965,6.39999962 C6.15199963,6.86399959 6.50399961,7.31999956 6.85599959,7.77599954 L5.73599966,8.4319995 C5.37599968,7.97599952 5.0239997,7.51199955 4.68799972,7.05599958" fill="#D7F8FF"></path>
                    </g>
                    <g transform="translate(1.600000, 11.199999)" id="路径">
                        <path d="M0.679999959,2.30399986 L1.80799989,1.6479999 C2.23999987,1.6479999 2.65599984,1.6479999 3.06399982,1.6479999 L1.93599988,2.30399986 C1.52799991,2.30399986 1.13599993,2.30399986 0.679999959,2.30399986" fill="#7A9499"></path>
                        <path d="M1.93599988,2.34399986 L3.06399982,1.6879999 C3.54399979,1.6879999 4.01599976,1.6879999 4.46399973,1.6239999 L3.3359998,2.27999986 C2.88799983,2.27999986 2.41599986,2.34399986 1.93599988,2.34399986" fill="#768F94"></path>
                        <path d="M3.3359998,2.27999986 L4.46399973,1.5999999 C4.9919997,1.55199991 5.48799967,1.47999991 5.96799964,1.39199992 L4.83999971,2.04799988 C4.35999974,2.13599987 3.86399977,2.20799987 3.3359998,2.25599987" fill="#728A8F"></path>
                        <path d="M4.83999971,2.07199988 L5.96799964,1.41599992 C6.54074381,1.30411772 7.10482702,1.15173505 7.65599954,0.959999943 L6.52799961,1.5999999 C5.97682709,1.79173501 5.41274388,1.94411768 4.83999971,2.05599988" fill="#6E858A"></path>
                        <path d="M6.52799961,1.5999999 L7.65599954,0.943999944 C8.27687019,0.733535744 8.87679339,0.465712888 9.44799944,0.143999991 L8.3199995,0.799999952 C7.74879346,1.12171285 7.14887026,1.38953571 6.52799961,1.5999999" fill="#6A8085"></path>
                    </g>
                    <polygon id="路径" fill="#B0D4DC" points="8.48799949 25.1999985 9.61599943 24.5439985 25.2479985 33.567998 24.1199986 34.223998"></polygon>
                    <polygon id="路径" fill="#9DBEC5" points="25.4079985 35.3599979 26.5359984 34.7039979 26.5039984 46.2079972 25.3759985 46.8639972"></polygon>
                    <path d="M14.6959991,12.4479993 L15.8239991,11.7919993 C15.3171114,12.2880524 14.7829484,12.7554451 14.2239992,13.1919992 L13.0959992,13.8479992 C13.6549485,13.411445 14.1891115,12.9440524 14.6959991,12.4479993" id="路径" fill="#6A8085"></path>
                    <polygon id="路径" fill="#BDE4EC" points="11.9759993 10.3199994 13.1039992 9.66399942 15.8239991 11.7919993 14.6959991 12.4479993"></polygon>
                    <g transform="translate(15.999999, 19.999999)" id="路径">
                        <path d="M0.135999992,2.79999983 L1.25599993,2.14399987 C1.7039999,2.08799988 2.14399987,2.01599988 2.55999985,1.93599988 L1.43199991,2.59199985 C1.01599994,2.67199984 0.575999966,2.74399984 0.135999992,2.79999983" fill="#728A8F"></path>
                        <path d="M1.43199991,2.59199985 L2.55999985,1.93599988 C3.19498398,1.81183643 3.82050933,1.64342576 4.43199974,1.43199991 L3.3039998,2.08799988 C2.69250939,2.29942572 2.06698404,2.46783639 1.43199991,2.59199985" fill="#6E858A"></path>
                        <path d="M3.3039998,2.08799988 L4.43199974,1.43199991 C4.98716658,1.24050619 5.52290271,0.996746251 6.03199964,0.703999958 L4.90399971,1.35999992 C4.39490278,1.65274621 3.85916665,1.89650615 3.3039998,2.08799988" fill="#6A8085"></path>
                    </g>
                    <g transform="translate(18.399999, 24.799999)" id="路径">
                        <polyline fill="#CCF6FF" points="0.183999989 0.799999952 1.30399992 0.143999991 2.10399987 1.03199994 0.975999942 1.6879999 0.17599999 0.799999952"></polyline>
                        <path d="M0.991999941,1.7119999 L2.11999987,1.05599994 C2.59199985,1.56799991 3.07199982,2.07199988 3.56799979,2.57599985 L2.43999985,3.19999981 C1.95199988,2.69599984 1.46399991,2.19199987 0.991999941,1.6799999" fill="#C8F1FA"></path>
                        <path d="M2.43999985,3.19999981 L3.56799979,2.54399985 C4.11199975,3.09599982 4.67199972,3.65599978 5.24799969,4.19999975 L4.11999975,4.85599971 C3.54399979,4.32266641 2.98399982,3.77066644 2.43999985,3.19999981" fill="#C4ECF5"></path>
                        <path d="M4.11999975,4.88799971 L5.24799969,4.23199975 C5.86399965,4.82399971 6.50399961,5.41599968 7.14399957,5.99999964 L6.01599964,6.6559996 C5.37599968,6.07199964 4.73599972,5.47999967 4.11999975,4.88799971" fill="#C0E7F0"></path>
                        <path d="M6.01599964,6.6559996 L7.14399957,5.99999964 C7.83999953,6.62399961 8.54399949,7.23199957 9.25599945,7.83999953 L8.12799952,8.49599949 C7.41599956,7.88799953 6.7119996,7.27999957 6.01599964,6.6559996" fill="#BCE2EB"></path>
                        <path d="M8.12799952,8.49599949 L9.25599945,7.83999953 C9.9999994,8.4639995 10.7599994,9.08799946 11.5199993,9.68799942 L10.3999994,10.3439994 C9.63999943,9.73599942 8.87999947,9.11999946 8.13599952,8.49599949" fill="#B8DDE6"></path>
                        <path d="M10.3999994,10.3439994 L11.5279993,9.68799942 C12.3279993,10.3039994 13.1279992,10.9039994 13.9279992,11.4959993 L12.8079992,12.1519993 C12.0079993,11.5599993 11.2079993,10.9599993 10.4079994,10.3439994" fill="#B4D8E0"></path>
                        <path d="M12.7999992,12.1519993 L13.9199992,11.4959993 C14.1199992,11.6319993 14.3119991,11.7759993 14.5039991,11.9199993 L13.3759992,12.5759993 L12.7999992,12.1519993" fill="#AFD4DB"></path>
                    </g>
                    <g transform="translate(29.599998, 35.999998)" id="路径">
                        <path d="M2.14399987,1.37599992 L3.2719998,0.719999957 C2.62663892,1.18437877 2.08230565,1.77498036 1.6719999,2.45599985 L0.543999968,3.11199981 C0.954305718,2.43098032 1.49863899,1.84037873 2.14399987,1.37599992" fill="#6A8085"></path>
                        <polyline fill="#6E858A" points="0.583999965 3.11199981 1.7119999 2.45599985 1.6639999 2.53599985 0.535999968 3.19999981 0.583999965 3.11999981"></polyline>
                    </g>
                    <polygon id="路径" fill="#B0D4DC" points="1.79999989 1.03999994 2.92799983 0.391999977 16.479999 8.21599951 15.3519991 8.86399947"></polygon>
                    <polygon id="路径" fill="#B0D4DC" points="13.1279992 13.8479992 14.2479992 13.1919992 24.3679985 19.0319989 23.2399986 19.6879988"></polygon>
                    <polygon id="路径" fill="#99B9C0" points="23.2399986 19.6879988 24.3679985 19.0319989 24.8079985 19.1679989 23.6799986 19.8239988"></polygon>
                    <path d="M18.5839989,25.5999985 C22.5461392,29.9753893 26.9570177,33.9223882 31.7439981,37.3759978 C31.0928437,37.8663607 30.5484361,38.4842633 30.1439982,39.1919977 C28.5439983,38.0319977 26.9439984,36.7119978 25.4159985,35.3599979 L25.4159985,46.8639972 L22.8639986,45.3919973 L22.8639986,44.1359974 L9.41599944,36.3759978 L9.41599944,37.6639978 L6.95999959,36.2479978 L6.95999959,24.9039985 C5.15999969,24.4879985 3.3519998,23.9119986 1.57599991,23.3039986 C1.26399299,22.1860613 0.857184742,21.0967787 0.359999979,20.0479988 C4.63280637,21.7401109 9.16017434,22.7002158 13.7519992,22.8879986 C12.1114235,20.6309685 10.6253663,18.2655717 9.30399945,15.8079991 C7.58843587,16.3444502 5.79706995,16.5984297 3.99999976,16.559999 C3.52753203,15.4924949 2.95990715,14.4696991 2.30399986,13.5039992 C6.97599958,13.8159992 10.3039994,12.3119993 11.9999993,10.3039994 L14.7199991,12.4319993 C14.2131115,12.9280524 13.6789485,13.395445 13.1199992,13.8319992 L23.2399986,19.6719988 L23.6799986,19.8079988 L25.3759985,22.0399987 C23.5959584,23.9818029 21.1936431,25.240967 18.5839989,25.5999985 Z M22.8319986,41.5999975 L22.8319986,35.9279979 L9.38399944,28.1679983 L9.38399944,33.839998 L22.8319986,41.5999975 Z M8.48799949,25.1999985 L24.1199986,34.223998 C21.2660986,31.622729 18.5932113,28.8295618 16.119999,25.8639985 C13.5660169,25.9698796 11.0090252,25.7467142 8.51199949,25.1999985 L8.48799949,25.1999985 Z M11.0959993,15.1359991 C12.5529069,17.8360688 14.2476141,20.4008863 16.159999,22.7999986 C18.0663731,22.6386287 19.90538,22.0183069 21.5199987,20.9919987 L11.1999993,15.0559991 L11.0559993,15.1359991 L11.0959993,15.1359991 Z" id="形状" fill="#CCF6FF"></path>
                    <polygon id="路径" fill="#CBF5FD" points="23.6799986 19.8239988 24.8079985 19.1679989 26.5039984 21.3999987 25.3759985 22.0559987"></polygon>
                    <path d="M25.3759985,22.0559987 L26.5039984,21.3999987 C25.7932719,22.2237128 24.9462798,22.9191663 23.9999986,23.4559986 L22.8719986,24.1119986 C23.8136567,23.5718449 24.6574873,22.8767665 25.3679985,22.0559987" id="路径" fill="#6A8085"></path>
                    <polygon id="路径" fill="#97B6BD" points="13.8319992 4.84799971 14.9599991 4.19199975 17.407999 4.90399971 16.279999 5.55999967"></polygon>
                    <g transform="translate(15.999999, 4.800000)" id="路径">
                        <polyline fill="#D2F7FF" points="0.279999983 0.799999952 1.40799992 0.143999991 1.44799991 0.223999987 0.319999981 0.879999948 0.319999981 0.799999952"></polyline>
                        <path d="M0.319999981,0.83999995 L1.44799991,0.183999989 L1.91199989,1.27199992 L0.799999952,1.92799989 C0.647999961,1.55199991 0.487999971,1.18399993 0.33599998,0.83999995" fill="#CCF6FF"></path>
                        <path d="M0.799999952,1.92799989 L1.92799989,1.27199992 C2.13599987,1.77599989 2.34399986,2.29599986 2.55199985,2.81599983 L1.42399992,3.47199979 C1.21599993,2.95199982 1.00799994,2.43199986 0.799999952,1.92799989" fill="#C8F1FA"></path>
                        <path d="M1.40799992,3.47199979 L2.53599985,2.81599983 C2.77599983,3.4319998 2.99999982,4.04799976 3.20799981,4.61599972 L2.07999988,5.27199969 C1.87199989,4.70399972 1.6479999,4.08799976 1.40799992,3.47199979" fill="#C4ECF5"></path>
                        <polyline fill="#C0E7F0" points="2.07999988 5.27199969 3.19999981 4.61599972 3.3679998 5.0879997 2.23999987 5.73599966 2.07199988 5.27199969"></polyline>
                    </g>
                    <path d="M4.27999974,5.17599969 L4.27999974,9.83199941 L1.78399989,8.3999995 L1.78399989,1.03999994 L15.3359991,8.86399947 C14.8639991,7.56799955 14.3199991,6.07999964 13.8159992,4.86399971 L16.263999,5.57599967 C16.951999,7.11199958 17.6879989,9.02399946 18.2319989,10.5519994 L30.3999982,17.535999 L30.3999982,24.8879985 L27.8399983,23.4159986 L27.8399983,18.7599989 L4.27999974,5.17599969 Z" id="路径" fill="#CCF6FF"></path>
                    <polygon id="路径" fill="#B0D4DC" points="18.2479989 10.5359994 19.3759988 9.87999941 31.4959981 16.879999 30.3679982 17.535999"></polygon>
                    <polygon id="路径" fill="#9DBEC5" points="30.3679982 17.535999 31.4959981 16.879999 31.4799981 24.2399986 30.3519982 24.8879985"></polygon>
                </g>
                <g id="编组" transform="translate(67.999996, 43.999997)">
                    <polygon id="路径" fill="#9DBEC5" points="2.96799982 18.8559989 4.09599976 18.1999989 4.08799976 20.6239988 2.95999982 21.2799987"></polygon>
                    <polygon id="路径" fill="#9DBEC5" points="3.00799982 5.63199966 4.13599975 4.9759997 4.10399976 15.3359991 2.97599982 15.991999"></polygon>
                    <polygon id="路径" fill="#B0D4DC" points="2.97599982 15.991999 4.10399976 15.3359991 13.8399992 20.9599988 12.7119992 21.6159987"></polygon>
                    <polygon id="路径" fill="#9DBEC5" points="15.3279991 25.9919985 16.455999 25.3359985 16.415999 38.0159977 15.2879991 38.6639977"></polygon>
                    <polygon id="路径" fill="#B0D4DC" points="0.527999969 1.33599992 1.6559999 0.679999959 13.8719992 7.73599954 12.7519992 8.3919995"></polygon>
                    <polygon id="路径" fill="#9DBEC5" points="15.3679991 12.7679992 16.495999 12.1119993 16.463999 22.4799987 15.3359991 23.1359986"></polygon>
                    <polygon id="路径" fill="#B0D4DC" points="15.3359991 23.1359986 16.463999 22.4799987 26.2319984 28.1199983 25.1039985 28.7759983"></polygon>
                    <polygon id="路径" fill="#B0D4DC" points="12.7679992 1.43199991 13.8959992 0.775999954 16.519999 2.29599986 15.3919991 2.95199982"></polygon>
                    <polygon id="路径" fill="#9DBEC5" points="15.3919991 2.95199982 16.519999 2.29599986 16.503999 9.25599945 15.3759991 9.91199941"></polygon>
                    <path d="M15.3759991,9.91199941 L27.7359983,17.047999 L27.6799984,35.3599979 L25.0959985,33.863998 L25.0959985,31.6319981 L15.3279991,25.9919985 L15.3279991,38.6639977 L12.7039992,37.1519978 L12.7039992,24.4719985 L2.96799982,18.8719989 L2.96799982,21.2719987 L0.479999971,19.8319988 L0.535999968,1.32799992 L12.7519992,8.3839995 L12.7519992,1.42399992 L15.3759991,2.93599983 L15.3759991,9.91199941 Z M25.1039985,28.7999983 L25.1039985,18.3999989 L15.3679991,12.7999992 L15.3679991,23.1999986 L25.1039985,28.7999983 Z M12.7119992,21.5999987 L12.7119992,11.1999993 L3.00799982,5.59999967 L3.00799982,15.959999 L12.7439992,21.5599987 L12.7119992,21.5999987 Z" id="形状" fill="#CCF6FF"></path>
                    <polygon id="路径" fill="#9DBEC5" points="27.7359983 17.047999 28.8639983 16.391999 28.8079983 34.7039979 27.6799984 35.3599979"></polygon>
                    <polygon id="路径" fill="#B0D4DC" points="15.3759991 9.91199941 16.503999 9.25599945 28.8639983 16.391999 27.7359983 17.047999"></polygon>
                </g>
                <g id="编组" transform="translate(108.799994, 63.999996)">
                    <g transform="translate(2.400000, 28.799998)" id="路径">
                        <polyline fill="#93B1B8" points="0.575999966 0.711999958 1.7039999 0.0559999967 1.7039999 0.367999978 0.575999966 1.01599994 0.575999966 0.711999958"></polyline>
                        <path d="M0.575999966,1.01599994 L1.7039999,0.367999978 C1.7039999,0.447999973 1.7039999,0.519999969 1.7039999,0.599999964 L0.575999966,1.24799993 C0.575999966,1.17599993 0.575999966,1.09599993 0.575999966,1.01599994" fill="#97B6BD"></path>
                        <path d="M0.583999965,1.24799993 L1.7119999,0.599999964 C1.7119999,0.655999961 1.7119999,0.719999957 1.7119999,0.775999954 L0.583999965,1.43199991 C0.583999965,1.36799992 0.583999965,1.31199992 0.583999965,1.24799993" fill="#9BBBC2"></path>
                        <path d="M0.599999964,1.43199991 L1.7279999,0.775999954 C1.7279999,0.823999951 1.7279999,0.863999949 1.7279999,0.911999946 L0.599999964,1.56799991 C0.599999964,1.51999991 0.599999964,1.47199991 0.599999964,1.43199991" fill="#9FC0C7"></path>
                        <path d="M0.615999963,1.5999999 L1.7439999,0.943999944 C1.7439999,0.943999944 1.7439999,1.02399994 1.7439999,1.06399994 L0.615999963,1.7199999 C0.615999963,1.7199999 0.615999963,1.6399999 0.615999963,1.5999999" fill="#A3C5CC"></path>
                        <path d="M0.631999962,1.6879999 L1.7599999,1.03199994 C1.76443629,1.06652467 1.76443629,1.1014752 1.7599999,1.13599993 L0.631999962,1.79199989 C0.636436352,1.75747516 0.636436352,1.72252463 0.631999962,1.6879999" fill="#A7CAD1"></path>
                        <polyline fill="#ABCFD6" points="0.647999961 1.79199989 1.77599989 1.13599993 1.77599989 1.22399993 0.647999961 1.87999989 0.647999961 1.79199989"></polyline>
                        <path d="M0.67199996,1.87999989 L1.79999989,1.22399993 C1.79552415,1.25047879 1.79552415,1.27752106 1.79999989,1.30399992 L0.67199996,1.95999988 C0.667524215,1.93352102 0.667524215,1.90647875 0.67199996,1.87999989" fill="#AFD4DB"></path>
                        <polyline fill="#B4D8E0" points="0.687999959 1.95999988 1.81599989 1.30399992 1.81599989 1.38399992 0.687999959 2.03999988 0.687999959 1.95999988"></polyline>
                        <path d="M0.711999958,2.03999988 L1.83999989,1.38399992 C1.83641929,1.40518301 1.83641929,1.42681682 1.83999989,1.44799991 L0.711999958,2.10399987 C0.708419362,2.08281678 0.708419362,2.06118297 0.711999958,2.03999988" fill="#B8DDE6"></path>
                        <path d="M0.727999957,2.10399987 L1.85599989,1.44799991 C1.85599989,1.44799991 1.85599989,1.44799991 1.85599989,1.51199991 L0.727999957,2.16799987 C0.727999957,2.16799987 0.727999957,2.16799987 0.727999957,2.10399987" fill="#BCE2EB"></path>
                        <polyline fill="#C0E7F0" points="0.743999956 2.16799987 1.87199989 1.51199991 1.87199989 1.56799991 0.743999956 2.22399987 0.743999956 2.16799987"></polyline>
                        <polyline fill="#C4ECF5" points="0.799999952 2.22399987 1.92799989 1.56799991 1.92799989 1.6239999 0.799999952 2.27199986 0.799999952 2.22399987"></polyline>
                        <polyline fill="#C8F1FA" points="0.799999952 2.27199986 1.92799989 1.6239999 1.92799989 1.6719999 0.799999952 2.31999986 0.799999952 2.27199986"></polyline>
                        <polyline fill="#CCF6FF" points="0.799999952 2.31999986 1.92799989 1.6719999 1.92799989 1.7199999 0.799999952 2.39999986 0.799999952 2.35199986"></polyline>
                        <polyline fill="#D2F7FF" points="0.799999952 2.39999986 1.92799989 1.7519999 1.92799989 1.79999989 0.799999952 2.45599985 0.799999952 2.39999986"></polyline>
                        <polyline fill="#D5F8FF" points="0.847999949 2.39999986 1.97599988 1.7439999 1.97599988 1.79199989 0.847999949 2.44799985 0.847999949 2.39999986"></polyline>
                        <path d="M0.871999948,2.47199985 L1.99999988,1.81599989 C1.99586649,1.83443774 1.99586649,1.85356204 1.99999988,1.87199989 L0.871999948,2.52799985 L0.871999948,2.47199985" fill="#D7F8FF"></path>
                        <path d="M0.903999946,2.52799985 L2.03199988,1.87199989 C2.05801697,1.92870214 2.09021181,1.98236021 2.12799987,2.03199988 L0.99999994,2.68799984 C0.962211877,2.63836017 0.930017034,2.5847021 0.903999946,2.52799985" fill="#D8F8FF"></path>
                        <polyline fill="#DAF8FF" points="0.99999994 2.68799984 2.12799987 2.03199988 2.12799987 2.03199988 0.99999994 2.68799984 0.99999994 2.68799984"></polyline>
                        <polyline fill="#D8F8FF" points="1.01599994 2.71999984 2.14399987 2.06399988 2.19199987 2.13599987 1.06399994 2.79199983 1.01599994 2.71999984"></polyline>
                        <polyline fill="#D7F8FF" points="1.06399994 2.79199983 2.19199987 2.13599987 2.24799987 2.19999987 1.11999993 2.85599983 1.06399994 2.79199983"></polyline>
                        <polyline fill="#D5F8FF" points="1.11999993 2.85599983 2.24799987 2.19999987 2.29599986 2.25599987 1.16799993 2.91199983 1.11999993 2.85599983"></polyline>
                        <path d="M1.16799993,2.91199983 L2.29599986,2.25599987 C2.29233526,2.27448667 2.29233526,2.29351305 2.29599986,2.31199986 L1.16799993,2.96799982 L1.16799993,2.91199983" fill="#D2F7FF"></path>
                        <polyline fill="#CCF6FF" points="1.20799993 2.96799982 2.33599986 2.31199986 2.39199986 2.36799986 1.26399992 3.02399982 1.20799993 2.96799982"></polyline>
                        <path d="M1.26399992,3.02399982 L2.39999986,2.39999986 C2.41708105,2.42519917 2.43880054,2.44691866 2.46399985,2.46399985 L1.33599992,3.11999981 C1.31269839,3.10072992 1.29126982,3.07930135 1.27199992,3.05599982" fill="#C8F1FA"></path>
                        <path d="M1.32799992,3.08799982 L2.45599985,2.43199986 L2.51999985,2.49599985 L1.39199992,3.15199981 C1.3668006,3.13491862 1.34508112,3.11319913 1.32799992,3.08799982" fill="#C4ECF5"></path>
                        <path d="M1.39199992,3.15199981 L2.51999985,2.49599985 C2.54535031,2.52674352 2.57498642,2.55368544 2.60799984,2.57599985 L1.47999991,3.23199981 C1.44698649,3.2096854 1.41735037,3.18274348 1.39199992,3.15199981" fill="#C0E7F0"></path>
                        <path d="M1.47999991,3.19999981 L2.60799984,2.54399985 C2.63814457,2.57529499 2.67020646,2.60468505 2.70399984,2.63199984 L1.57599991,3.2879998 L1.47999991,3.19999981" fill="#BCE2EB"></path>
                        <polyline fill="#B8DDE6" points="1.5999999 3.3199998 2.72799984 2.66399984 2.84799983 2.75999984 1.7199999 3.4159998 1.5999999 3.3199998"></polyline>
                        <polyline fill="#B4D8E0" points="1.6959999 3.4159998 2.82399983 2.75999984 2.97599982 2.87999983 1.84799989 3.53599979 1.6959999 3.4159998"></polyline>
                        <polyline fill="#AFD4DB" points="1.84799989 3.53599979 2.97599982 2.87999983 3.17599981 3.01599982 2.04799988 3.67199978 1.84799989 3.53599979"></polyline>
                        <path d="M2.04799988,3.67199978 L3.17599981,3.01599982 C3.25599981,3.07999982 3.3519998,3.13599981 3.44799979,3.19999981 L2.31999986,3.85599977 L2.04799988,3.67199978" fill="#ABCFD6"></path>
                        <polyline fill="#A7CAD1" points="2.31999986 3.85599977 3.44799979 3.19999981 3.89599977 3.47199979 2.76799984 4.12799975 2.31999986 3.85599977"></polyline>
                        <polyline fill="#A3C5CC" points="2.76799984 4.12799975 3.89599977 3.47199979 4.04799976 3.55999979 2.91999983 4.21599975 2.76799984 4.12799975"></polyline>
                    </g>
                    <polygon id="路径" fill="#B0D4DC" points="5.31999968 33.015998 6.44799962 32.3599981 12.9439992 36.1119978 11.8159993 36.7679978"></polygon>
                    <g transform="translate(11.199999, 35.999998)" id="路径">
                        <polyline fill="#A3C5CC" points="0.615999963 0.799999952 1.7439999 0.143999991 1.89599989 0.223999987 0.767999954 0.879999948 0.615999963 0.799999952"></polyline>
                        <polyline fill="#9FC0C7" points="0.799999952 0.847999949 1.92799989 0.191999989 2.10399987 0.287999983 0.975999942 0.943999944 0.799999952 0.847999949"></polyline>
                        <polyline fill="#9BBBC2" points="0.943999944 0.943999944 2.07199988 0.287999983 2.19999987 0.351999979 1.07199994 1.00799994 0.943999944 0.943999944"></polyline>
                        <polyline fill="#97B6BD" points="1.07199994 1.00799994 2.19999987 0.351999979 2.32799986 0.399999976 1.19999993 1.05599994 1.07199994 1.00799994"></polyline>
                        <polyline fill="#93B1B8" points="1.19999993 1.05599994 2.32799986 0.399999976 2.42399986 0.399999976 1.29599992 1.05599994 1.19999993 1.01599994"></polyline>
                        <polyline fill="#8FACB3" points="1.29599992 1.09599993 2.42399986 0.439999974 2.51999985 0.439999974 1.39199992 1.09599993 1.29599992 1.09599993"></polyline>
                        <polyline fill="#8BA7AD" points="1.39199992 1.12799993 2.51999985 0.471999972 2.60799984 0.471999972 1.47999991 1.12799993 1.39199992 1.12799993"></polyline>
                        <polyline fill="#87A2A8" points="1.47999991 1.15199993 2.60799984 0.49599997 2.68799984 0.49599997 1.55999991 1.15199993 1.47999991 1.15199993"></polyline>
                        <polyline fill="#839DA3" points="1.5999999 1.16799993 2.72799984 0.511999969 2.79999983 0.511999969 1.6799999 1.16799993 1.5999999 1.16799993"></polyline>
                        <polyline fill="#7E999E" points="1.6399999 1.18399993 2.75999984 0.527999969 2.83999983 0.527999969 1.7119999 1.18399993 1.6399999 1.18399993"></polyline>
                        <polyline fill="#7A9499" points="1.7119999 1.19199993 2.83999983 0.535999968 2.91999983 0.535999968 1.79199989 1.19199993 1.7119999 1.19199993"></polyline>
                        <polyline fill="#768F94" points="1.79199989 1.19199993 2.91999983 0.535999968 2.99199982 0.535999968 1.86399989 1.18399993 1.79199989 1.18399993"></polyline>
                        <polyline fill="#728A8F" points="1.86399989 1.18399993 2.99199982 0.535999968 3.07999982 0.535999968 1.95199988 1.19199993 1.86399989 1.19199993"></polyline>
                        <polyline fill="#6E858A" points="1.95199988 1.17599993 3.07999982 0.519999969 3.18399981 0.519999969 2.05599988 1.17599993 1.95199988 1.17599993"></polyline>
                        <path d="M2.05599988,1.14399993 L3.18399981,0.487999971 C3.22270972,0.47542476 3.26019713,0.459358729 3.2959998,0.439999974 L2.16799987,1.09599993 L2.05599988,1.14399993" fill="#6A8085"></path>
                    </g>
                    <polygon id="路径" fill="#B0D4DC" points="0.471999972 8.74399948 1.5999999 8.08799952 4.15199975 9.55999943 3.02399982 10.2159994"></polygon>
                    <polygon id="路径" fill="#9DBEC5" points="3.02399982 10.2159994 4.15199975 9.55999943 4.10399976 28.8559983 2.97599982 29.5119982"></polygon>
                    <g transform="translate(14.399999, 31.999998)" id="路径">
                        <path d="M2.51199985,0.887999947 L3.63999978,0.231999986 C3.59999979,0.935999944 3.55999979,1.58399991 3.51199979,2.18399987 L2.38399986,2.83999983 C2.43199986,2.23999987 2.47999985,1.59199991 2.51199985,0.887999947" fill="#8BA7AD"></path>
                        <path d="M2.39999986,2.83999983 L3.52799979,2.18399987 C3.47999979,2.75199984 3.4319998,3.2719998 3.3679998,3.78399977 L2.23999987,4.43999974 C2.30399986,3.95999976 2.35199986,3.43999979 2.39999986,2.83999983" fill="#87A2A8"></path>
                        <path d="M2.22399987,4.40799974 L3.3519998,3.75199978 C3.3119998,4.09599976 3.26399981,4.41599974 3.21599981,4.71199972 L2.08799988,5.36799968 C2.13599987,5.0719997 2.18399987,4.75199972 2.22399987,4.40799974" fill="#839DA3"></path>
                        <path d="M2.08799988,5.36799968 L3.21599981,4.71199972 C3.17599981,4.9519997 3.12799981,5.17599969 3.07999982,5.38399968 L1.95199988,6.03999964 C1.99999988,5.83199965 2.04799988,5.60799967 2.08799988,5.36799968" fill="#7E999E"></path>
                        <path d="M1.95199988,6.03999964 L3.07999982,5.38399968 C3.07999982,5.56799967 2.99199982,5.74399966 2.94399982,5.90399965 L1.81599989,6.55999961 C1.86399989,6.39999962 1.91199989,6.22399963 1.95199988,6.03999964" fill="#7A9499"></path>
                        <path d="M1.81599989,6.55999961 L2.94399982,5.90399965 C2.90582539,6.04753004 2.86043437,6.18904322 2.80799983,6.32799962 L1.6799999,6.98399958 C1.7279999,6.84799959 1.77599989,6.7119996 1.81599989,6.55999961" fill="#768F94"></path>
                        <path d="M1.6799999,6.98399958 L2.80799983,6.32799962 C2.76363438,6.45056373 2.71289863,6.57072735 2.65599984,6.6879996 L1.52799991,7.34399956 C1.5848987,7.22672731 1.63563445,7.10656369 1.6799999,6.98399958" fill="#728A8F"></path>
                        <path d="M1.52799991,7.34399956 L2.65599984,6.6879996 C2.60116883,6.80343962 2.53973375,6.91562542 2.47199985,7.02399958 L1.34399992,7.67999954 C1.41173382,7.57162539 1.4731689,7.45943958 1.52799991,7.34399956" fill="#6E858A"></path>
                        <path d="M1.34399992,7.67999954 L2.47199985,7.02399958 C2.32802617,7.27041972 2.12446538,7.47673133 1.87999989,7.62399955 L0.751999955,8.27999951 C0.996465446,8.13273129 1.20002624,7.92641968 1.34399992,7.67999954" fill="#6A8085"></path>
                    </g>
                    <path d="M11.8159993,36.7999978 C13.9359992,38.0239977 14.2159992,36.7999978 14.5359991,30.2559982 C15.2407738,31.2253725 16.045164,32.1182456 16.935999,32.919998 C16.543999,40.1199976 15.7519991,41.7999975 11.9759993,39.6159976 L5.12799969,35.6719979 C1.44799991,33.543998 0.431999974,31.8959981 0.439999974,28.0239983 L0.49599997,8.77599948 L3.04799982,10.2479994 L2.99999982,29.5439982 C2.99999982,31.3359981 3.3999998,31.9439981 5.34399968,33.047998 L11.8159993,36.7999978 Z" id="路径" fill="#CCF6FF"></path>
                    <g transform="translate(14.399999, 28.799998)" id="路径">
                        <polyline fill="#DAF8FF" points="0.135999992 1.42399992 1.26399992 0.767999954 1.26399992 0.767999954 0.135999992 1.42399992 0.135999992 1.42399992"></polyline>
                        <polyline fill="#D8F8FF" points="0.143999991 1.43999991 1.27199992 0.783999953 1.47199991 1.07199994 0.343999979 1.7279999 0.143999991 1.43999991"></polyline>
                        <path d="M0.343999979,1.7279999 L1.47199991,1.07199994 L1.6799999,1.33599992 L0.551999967,1.98399988 C0.479999971,1.89599989 0.415999975,1.80799989 0.343999979,1.7279999" fill="#D7F8FF"></path>
                        <polyline fill="#D5F8FF" points="0.551999967 1.98399988 1.6799999 1.33599992 1.91199989 1.6239999 0.783999953 2.27999986 0.551999967 1.98399988"></polyline>
                        <polyline fill="#D2F7FF" points="0.799999952 2.27999986 1.92799989 1.6239999 2.21599987 1.95999988 1.08799994 2.61599984 0.799999952 2.27999986"></polyline>
                        <path d="M1.07199994,2.61599984 L2.19999987,1.95999988 C2.31199986,2.08799988 2.43199986,2.22399987 2.55199985,2.34399986 L1.42399992,2.99999982 L1.07199994,2.61599984" fill="#CCF6FF"></path>
                        <path d="M1.42399992,2.99999982 L2.55199985,2.34399986 C2.68799984,2.48799985 2.81599983,2.63199984 2.95199982,2.76799984 L1.82399989,3.4239998 C1.6879999,3.2879998 1.55999991,3.14399981 1.42399992,2.99999982" fill="#C8F1FA"></path>
                        <polyline fill="#C4ECF5" points="1.82399989 3.4239998 2.95199982 2.76799984 3.3439998 3.15999981 2.21599987 3.81599977 1.82399989 3.4239998"></polyline>
                        <polyline fill="#C0E7F0" points="2.21599987 3.81599977 3.3439998 3.15999981 3.63999978 3.4319998 2.51199985 4.08799976 2.21599987 3.81599977"></polyline>
                    </g>
                    <polygon id="路径" fill="#677C81" points="2.09599988 2.11999987 3.22399981 1.46399991 4.89599971 0.50399997 3.76799978 1.15999993"></polygon>
                    <polygon id="路径" fill="#667B80" points="12.9039992 15.0959991 14.0319992 14.4399991 12.2239993 15.5519991 11.0959993 16.207999"></polygon>
                    <path d="M11.0959993,16.207999 C8.35027117,11.3543247 5.34594805,6.65155754 2.09599988,2.11999987 L3.76799978,1.15999993 C7.06752602,5.63362898 10.1175021,10.2860444 12.9039992,15.0959991 L11.0959993,16.207999 Z" id="路径" fill="#CCF6FF"></path>
                    <g transform="translate(3.200000, 0.000000)" id="路径">
                        <path d="M0.567999966,1.15999993 L1.6959999,0.50399997 C2.84799983,2.10399987 4.09599976,3.89599977 5.35999968,5.71999966 L4.23199975,6.37599962 C2.99199982,4.55199973 1.7199999,2.74399984 0.567999966,1.15999993" fill="#D8F8FF"></path>
                        <path d="M4.23199975,6.39999962 L5.35999968,5.74399966 C7.11999958,8.3359995 8.82399947,10.9679993 10.0559994,13.0879992 L8.92799947,13.7439992 C7.69599954,11.6239993 5.99199964,8.99199946 4.23199975,6.39999962" fill="#DAF8FF"></path>
                        <path d="M8.92799947,13.7199992 L10.0559994,13.0639992 C10.3439994,13.5519992 10.5999994,14.0159992 10.8559994,14.4399991 L9.72799942,15.0959991 C9.49599943,14.6719991 9.23999945,14.2079992 8.92799947,13.7199992" fill="#D8F8FF"></path>
                    </g>
                    <polygon id="路径" fill="#89A5AB" points="16.199999 20.7999988 17.327999 20.1439988 19.6799988 20.4479988 18.5519989 21.1039987"></polygon>
                    <g transform="translate(18.399999, 19.999999)" id="路径">
                        <polyline fill="#C0E7F0" points="0.151999991 1.10399993 1.27999992 0.447999973 1.39999992 0.815999951 0.271999984 1.47199991 0.151999991 1.10399993"></polyline>
                        <path d="M0.271999984,1.47199991 L1.39999992,0.815999951 C1.7359999,1.81599989 2.06399988,2.84799983 2.39199986,3.90399977 L1.26399992,4.55199973 C0.943999944,3.50399979 0.607999964,2.47199985 0.271999984,1.47199991" fill="#BCE2EB"></path>
                        <path d="M1.26399992,4.55199973 L2.39199986,3.90399977 C2.75999984,5.1119997 3.11999981,6.35199962 3.46399979,7.57599955 L2.33599986,8.23199951 C1.99199988,7.00799958 1.6319999,5.76799966 1.26399992,4.55199973" fill="#B8DDE6"></path>
                        <path d="M2.33599986,8.23199951 L3.46399979,7.57599955 C3.80799977,8.80799948 4.12799975,10.0239994 4.41599974,11.2079993 L3.2879998,11.8639993 C2.99999982,10.6799994 2.67999984,9.46399944 2.33599986,8.23199951" fill="#B4D8E0"></path>
                        <path d="M3.2879998,11.8639993 L4.41599974,11.2079993 C4.67199972,12.2319993 4.90399971,13.2239992 5.1119997,14.1679992 L3.98399976,14.8159991 C3.77599977,13.8799992 3.54399979,12.8799992 3.2879998,11.8639993" fill="#AFD4DB"></path>
                        <path d="M3.99999976,14.8159991 L5.12799969,14.1679992 C5.28799968,14.9119991 5.43199968,15.6319991 5.55999967,16.303999 L4.43199974,16.959999 C4.30399974,16.287999 4.15999975,15.5679991 3.99999976,14.8159991" fill="#ABCFD6"></path>
                        <path d="M4.41599974,16.959999 L5.54399967,16.303999 C5.63999966,16.815999 5.72799966,17.295999 5.79999965,17.7519989 L4.67199972,18.4079989 C4.59999973,17.9519989 4.51199973,17.463999 4.41599974,16.959999" fill="#A7CAD1"></path>
                    </g>
                    <path d="M18.5519989,21.1039987 C20.4817677,26.7503883 21.9925309,32.5313972 23.0719986,38.3999977 L20.5839988,38.0959977 C19.5478012,32.2311699 18.0825316,26.4503069 16.199999,20.7999988 L18.5519989,21.1039987 Z" id="路径" fill="#CCF6FF"></path>
                </g>
                <g id="编组" transform="translate(99.999994, 71.199996)">
                    <path d="M0.743999956,14.2559992 C2.22399987,11.1119993 3.3599998,5.65599966 3.84799977,1.35199992 L6.30399962,3.3119998 C5.74399966,7.57599955 4.70399972,13.5839992 3.26399981,16.911999 L0.743999956,14.2559992 Z" id="路径" fill="#CCF6FF"></path>
                    <polygon id="路径" fill="#BEE5ED" points="3.84799977 1.35199992 4.9759997 0.695999959 7.43199956 2.65599984 6.30399962 3.3119998"></polygon>
                    <g transform="translate(3.200000, 2.400000)" id="路径">
                        <path d="M3.10399981,0.911999946 L4.23199975,0.255999985 C4.06399976,1.53599991 3.84799977,2.97599982 3.59199979,4.44799973 L2.46399985,5.1039997 C2.71999984,3.63199978 2.93599983,2.19199987 3.10399981,0.911999946" fill="#839DA3"></path>
                        <path d="M2.46399985,5.1039997 L3.59199979,4.44799973 C3.3599998,5.81599965 3.08799982,7.21599957 2.79199983,8.55199949 L1.6639999,9.20799945 C1.96799988,7.87199953 2.23999987,6.47199961 2.46399985,5.1039997" fill="#7E999E"></path>
                        <path d="M1.6559999,9.20799945 L2.78399983,8.55199949 C2.55999985,9.52799943 2.31999986,10.4719994 2.06399988,11.3439993 L0.935999944,11.9999993 C1.19199993,11.1279993 1.43199991,10.1839994 1.6559999,9.20799945" fill="#7A9499"></path>
                        <path d="M0.935999944,11.9999993 L2.06399988,11.3439993 C1.87199989,11.9999993 1.6719999,12.6159992 1.46399991,13.1679992 L0.343999979,13.8239992 C0.543999968,13.2719992 0.743999956,12.6559992 0.935999944,11.9999993" fill="#768F94"></path>
                        <path d="M0.343999979,13.8239992 L1.46399991,13.1679992 C1.37599992,13.4159992 1.28799992,13.6479992 1.19199993,13.8719992 L0.0639999962,14.5279991 C0.15999999,14.3039991 0.247999985,14.0719992 0.343999979,13.8239992" fill="#728A8F"></path>
                    </g>
                </g>
            </g>
        </g>
    </g>
</svg>